%TF.GenerationSoftware,KiCad,Pcbnew,(7.0.0)*%
%TF.CreationDate,2023-02-19T15:54:43+01:00*%
%TF.ProjectId,bbb-can-bus-cape,6262622d-6361-46e2-9d62-75732d636170,rev?*%
%TF.SameCoordinates,Original*%
%TF.FileFunction,Soldermask,Bot*%
%TF.FilePolarity,Negative*%
%FSLAX46Y46*%
G04 Gerber Fmt 4.6, Leading zero omitted, Abs format (unit mm)*
G04 Created by KiCad (PCBNEW (7.0.0)) date 2023-02-19 15:54:43*
%MOMM*%
%LPD*%
G01*
G04 APERTURE LIST*
%ADD10R,1.727200X1.727200*%
%ADD11O,1.727200X1.727200*%
%ADD12C,3.250000*%
%ADD13R,1.500000X1.500000*%
%ADD14C,1.500000*%
%ADD15C,3.000000*%
%ADD16R,1.700000X1.700000*%
%ADD17O,1.700000X1.700000*%
%ADD18C,2.000000*%
G04 APERTURE END LIST*
D10*
%TO.C,P8*%
X164630099Y-62382399D03*
D11*
X167170099Y-62382399D03*
X164630099Y-64922399D03*
X167170099Y-64922399D03*
X164630099Y-67462399D03*
X167170099Y-67462399D03*
X164630099Y-70002399D03*
X167170099Y-70002399D03*
X164630099Y-72542399D03*
X167170099Y-72542399D03*
X164630099Y-75082399D03*
X167170099Y-75082399D03*
X164630099Y-77622399D03*
X167170099Y-77622399D03*
X164630099Y-80162399D03*
X167170099Y-80162399D03*
X164630099Y-82702399D03*
X167170099Y-82702399D03*
X164630099Y-85242399D03*
X167170099Y-85242399D03*
X164630099Y-87782399D03*
X167170099Y-87782399D03*
X164630099Y-90322399D03*
X167170099Y-90322399D03*
X164630099Y-92862399D03*
X167170099Y-92862399D03*
X164630099Y-95402399D03*
X167170099Y-95402399D03*
X164630099Y-97942399D03*
X167170099Y-97942399D03*
X164630099Y-100482399D03*
X167170099Y-100482399D03*
X164630099Y-103022399D03*
X167170099Y-103022399D03*
X164630099Y-105562399D03*
X167170099Y-105562399D03*
X164630099Y-108102399D03*
X167170099Y-108102399D03*
X164630099Y-110642399D03*
X167170099Y-110642399D03*
X164630099Y-113182399D03*
X167170099Y-113182399D03*
X164630099Y-115722399D03*
X167170099Y-115722399D03*
X164630099Y-118262399D03*
X167170099Y-118262399D03*
%TD*%
D10*
%TO.C,P9*%
X116370099Y-62382399D03*
D11*
X118910099Y-62382399D03*
X116370099Y-64922399D03*
X118910099Y-64922399D03*
X116370099Y-67462399D03*
X118910099Y-67462399D03*
X116370099Y-70002399D03*
X118910099Y-70002399D03*
X116370099Y-72542399D03*
X118910099Y-72542399D03*
X116370099Y-75082399D03*
X118910099Y-75082399D03*
X116370099Y-77622399D03*
X118910099Y-77622399D03*
X116370099Y-80162399D03*
X118910099Y-80162399D03*
X116370099Y-82702399D03*
X118910099Y-82702399D03*
X116370099Y-85242399D03*
X118910099Y-85242399D03*
X116370099Y-87782399D03*
X118910099Y-87782399D03*
X116370099Y-90322399D03*
X118910099Y-90322399D03*
X116370099Y-92862399D03*
X118910099Y-92862399D03*
X116370099Y-95402399D03*
X118910099Y-95402399D03*
X116370099Y-97942399D03*
X118910099Y-97942399D03*
X116370099Y-100482399D03*
X118910099Y-100482399D03*
X116370099Y-103022399D03*
X118910099Y-103022399D03*
X116370099Y-105562399D03*
X118910099Y-105562399D03*
X116370099Y-108102399D03*
X118910099Y-108102399D03*
X116370099Y-110642399D03*
X118910099Y-110642399D03*
X116370099Y-113182399D03*
X118910099Y-113182399D03*
X116370099Y-115722399D03*
X118910099Y-115722399D03*
X116370099Y-118262399D03*
X118910099Y-118262399D03*
%TD*%
D12*
%TO.C,J2*%
X146714791Y-120512328D03*
X158144791Y-120512328D03*
D13*
X147984790Y-114162327D03*
D14*
X149254791Y-111622328D03*
X150524791Y-114162328D03*
X151794791Y-111622328D03*
X153064791Y-114162328D03*
X154334791Y-111622328D03*
X155604791Y-114162328D03*
X156874791Y-111622328D03*
D15*
X144659791Y-123562328D03*
X160199791Y-123562328D03*
%TD*%
D16*
%TO.C,J7*%
X163985099Y-54162399D03*
D17*
X161445099Y-54162399D03*
X158905099Y-54162399D03*
%TD*%
D16*
%TO.C,J1*%
X151920099Y-103057399D03*
D17*
X154460099Y-103057399D03*
X157000099Y-103057399D03*
%TD*%
D12*
%TO.C,J4*%
X126543541Y-120562003D03*
X137973541Y-120562003D03*
D13*
X127813540Y-114212002D03*
D14*
X129083541Y-111672003D03*
X130353541Y-114212003D03*
X131623541Y-111672003D03*
X132893541Y-114212003D03*
X134163541Y-111672003D03*
X135433541Y-114212003D03*
X136703541Y-111672003D03*
D15*
X124488541Y-123612003D03*
X140028541Y-123612003D03*
%TD*%
D18*
%TO.C,Sw1*%
X111355100Y-70382400D03*
X104855100Y-70382400D03*
X111355100Y-65882400D03*
X104855100Y-65882400D03*
%TD*%
D16*
%TO.C,J5*%
X110660099Y-50352399D03*
D17*
X113200099Y-50352399D03*
X115740099Y-50352399D03*
%TD*%
D16*
%TO.C,J6*%
X124615099Y-50352399D03*
D17*
X127155099Y-50352399D03*
X129695099Y-50352399D03*
%TD*%
D18*
%TO.C,Sw3*%
X104930100Y-96707400D03*
X111430100Y-96707400D03*
X104930100Y-101207400D03*
X111430100Y-101207400D03*
%TD*%
D16*
%TO.C,J3*%
X129060099Y-103057399D03*
D17*
X131600099Y-103057399D03*
X134140099Y-103057399D03*
%TD*%
D18*
%TO.C,Sw2*%
X104845109Y-75417299D03*
X111345109Y-75417299D03*
X104845109Y-79917299D03*
X111345109Y-79917299D03*
%TD*%
%TO.C,Sw4*%
X111430100Y-109462400D03*
X104930100Y-109462400D03*
X111430100Y-104962400D03*
X104930100Y-104962400D03*
%TD*%
M02*
