%TF.GenerationSoftware,KiCad,Pcbnew,(7.0.0)*%
%TF.CreationDate,2023-02-19T15:54:43+01:00*%
%TF.ProjectId,bbb-can-bus-cape,6262622d-6361-46e2-9d62-75732d636170,rev?*%
%TF.SameCoordinates,Original*%
%TF.FileFunction,Paste,Top*%
%TF.FilePolarity,Positive*%
%FSLAX46Y46*%
G04 Gerber Fmt 4.6, Leading zero omitted, Abs format (unit mm)*
G04 Created by KiCad (PCBNEW (7.0.0)) date 2023-02-19 15:54:43*
%MOMM*%
%LPD*%
G01*
G04 APERTURE LIST*
G04 Aperture macros list*
%AMRoundRect*
0 Rectangle with rounded corners*
0 $1 Rounding radius*
0 $2 $3 $4 $5 $6 $7 $8 $9 X,Y pos of 4 corners*
0 Add a 4 corners polygon primitive as box body*
4,1,4,$2,$3,$4,$5,$6,$7,$8,$9,$2,$3,0*
0 Add four circle primitives for the rounded corners*
1,1,$1+$1,$2,$3*
1,1,$1+$1,$4,$5*
1,1,$1+$1,$6,$7*
1,1,$1+$1,$8,$9*
0 Add four rect primitives between the rounded corners*
20,1,$1+$1,$2,$3,$4,$5,0*
20,1,$1+$1,$4,$5,$6,$7,0*
20,1,$1+$1,$6,$7,$8,$9,0*
20,1,$1+$1,$8,$9,$2,$3,0*%
G04 Aperture macros list end*
%ADD10RoundRect,0.140000X-0.170000X0.140000X-0.170000X-0.140000X0.170000X-0.140000X0.170000X0.140000X0*%
%ADD11R,1.000000X0.600000*%
%ADD12RoundRect,0.250000X0.625000X-0.312500X0.625000X0.312500X-0.625000X0.312500X-0.625000X-0.312500X0*%
%ADD13RoundRect,0.225000X0.225000X0.250000X-0.225000X0.250000X-0.225000X-0.250000X0.225000X-0.250000X0*%
%ADD14RoundRect,0.100000X-0.100000X0.637500X-0.100000X-0.637500X0.100000X-0.637500X0.100000X0.637500X0*%
%ADD15RoundRect,0.250000X-0.450000X0.262500X-0.450000X-0.262500X0.450000X-0.262500X0.450000X0.262500X0*%
%ADD16RoundRect,0.225000X-0.250000X0.225000X-0.250000X-0.225000X0.250000X-0.225000X0.250000X0.225000X0*%
%ADD17RoundRect,0.200000X0.200000X0.275000X-0.200000X0.275000X-0.200000X-0.275000X0.200000X-0.275000X0*%
%ADD18RoundRect,0.250000X-0.375000X-0.625000X0.375000X-0.625000X0.375000X0.625000X-0.375000X0.625000X0*%
%ADD19RoundRect,0.200000X-0.200000X-0.275000X0.200000X-0.275000X0.200000X0.275000X-0.200000X0.275000X0*%
%ADD20RoundRect,0.200000X-0.275000X0.200000X-0.275000X-0.200000X0.275000X-0.200000X0.275000X0.200000X0*%
%ADD21RoundRect,0.100000X0.100000X-0.712500X0.100000X0.712500X-0.100000X0.712500X-0.100000X-0.712500X0*%
%ADD22RoundRect,0.250000X0.625000X-0.375000X0.625000X0.375000X-0.625000X0.375000X-0.625000X-0.375000X0*%
%ADD23RoundRect,0.200000X0.275000X-0.200000X0.275000X0.200000X-0.275000X0.200000X-0.275000X-0.200000X0*%
%ADD24RoundRect,0.150000X-0.825000X-0.150000X0.825000X-0.150000X0.825000X0.150000X-0.825000X0.150000X0*%
%ADD25RoundRect,0.225000X0.250000X-0.225000X0.250000X0.225000X-0.250000X0.225000X-0.250000X-0.225000X0*%
%ADD26RoundRect,0.250000X-0.262500X-0.450000X0.262500X-0.450000X0.262500X0.450000X-0.262500X0.450000X0*%
%ADD27RoundRect,0.243750X-0.243750X-0.456250X0.243750X-0.456250X0.243750X0.456250X-0.243750X0.456250X0*%
%ADD28R,0.600000X1.000000*%
%ADD29RoundRect,0.225000X-0.225000X-0.250000X0.225000X-0.250000X0.225000X0.250000X-0.225000X0.250000X0*%
%ADD30RoundRect,0.250000X-0.625000X0.375000X-0.625000X-0.375000X0.625000X-0.375000X0.625000X0.375000X0*%
%ADD31RoundRect,0.150000X0.150000X-0.825000X0.150000X0.825000X-0.150000X0.825000X-0.150000X-0.825000X0*%
%ADD32RoundRect,0.140000X0.170000X-0.140000X0.170000X0.140000X-0.170000X0.140000X-0.170000X-0.140000X0*%
%ADD33R,1.400000X1.200000*%
%ADD34RoundRect,0.250000X0.262500X0.450000X-0.262500X0.450000X-0.262500X-0.450000X0.262500X-0.450000X0*%
%ADD35R,0.800000X0.900000*%
G04 APERTURE END LIST*
D10*
%TO.C,C15*%
X143205946Y-74584367D03*
X143205946Y-75544367D03*
%TD*%
D11*
%TO.C,D1*%
X159025099Y-91947399D03*
X159025099Y-93847399D03*
X161325099Y-92897399D03*
%TD*%
D12*
%TO.C,R21*%
X155095100Y-65149900D03*
X155095100Y-62224900D03*
%TD*%
D13*
%TO.C,C1*%
X143805100Y-96707400D03*
X142255100Y-96707400D03*
%TD*%
D11*
%TO.C,D4*%
X134655099Y-68873542D03*
X134655099Y-66973542D03*
X132355099Y-67923542D03*
%TD*%
D14*
%TO.C,U1*%
X128175100Y-78844899D03*
X127525100Y-78844899D03*
X126875100Y-78844899D03*
X126225100Y-78844899D03*
X125575100Y-78844899D03*
X124925100Y-78844899D03*
X124275100Y-78844899D03*
X123625100Y-78844899D03*
X122975100Y-78844899D03*
X122325100Y-78844899D03*
X122325100Y-84569899D03*
X122975100Y-84569899D03*
X123625100Y-84569899D03*
X124275100Y-84569899D03*
X124925100Y-84569899D03*
X125575100Y-84569899D03*
X126225100Y-84569899D03*
X126875100Y-84569899D03*
X127525100Y-84569899D03*
X128175100Y-84569899D03*
%TD*%
D15*
%TO.C,R3*%
X132616682Y-90413817D03*
X132616682Y-92238817D03*
%TD*%
D10*
%TO.C,C6*%
X126700132Y-75282169D03*
X126700132Y-76242169D03*
%TD*%
D16*
%TO.C,C11*%
X155730100Y-79562400D03*
X155730100Y-81112400D03*
%TD*%
D17*
%TO.C,R13*%
X111269692Y-88265214D03*
X109619692Y-88265214D03*
%TD*%
D13*
%TO.C,C8*%
X125369165Y-86547400D03*
X123819165Y-86547400D03*
%TD*%
D12*
%TO.C,R20*%
X157635100Y-65149900D03*
X157635100Y-62224900D03*
%TD*%
D16*
%TO.C,C2*%
X157000100Y-92122400D03*
X157000100Y-93672400D03*
%TD*%
D18*
%TO.C,F1*%
X146075100Y-96975356D03*
X148875100Y-96975356D03*
%TD*%
D19*
%TO.C,R19*%
X154270100Y-89087400D03*
X155920100Y-89087400D03*
%TD*%
%TO.C,R17*%
X154270100Y-85277400D03*
X155920100Y-85277400D03*
%TD*%
D20*
%TO.C,R18*%
X155704880Y-76209955D03*
X155704880Y-77859955D03*
%TD*%
D13*
%TO.C,C3*%
X123164110Y-89249290D03*
X121614110Y-89249290D03*
%TD*%
D21*
%TO.C,U6*%
X157464047Y-79769900D03*
X158114047Y-79769900D03*
X158764047Y-79769900D03*
X159414047Y-79769900D03*
X159414047Y-75544900D03*
X158764047Y-75544900D03*
X158114047Y-75544900D03*
X157464047Y-75544900D03*
%TD*%
D19*
%TO.C,R5*%
X126944165Y-86547400D03*
X128594165Y-86547400D03*
%TD*%
D22*
%TO.C,F10*%
X132870100Y-63687400D03*
X132870100Y-60887400D03*
%TD*%
D19*
%TO.C,R6*%
X141505902Y-86841872D03*
X143155902Y-86841872D03*
%TD*%
D14*
%TO.C,U2*%
X144852925Y-78558047D03*
X144202925Y-78558047D03*
X143552925Y-78558047D03*
X142902925Y-78558047D03*
X142252925Y-78558047D03*
X141602925Y-78558047D03*
X140952925Y-78558047D03*
X140302925Y-78558047D03*
X139652925Y-78558047D03*
X139002925Y-78558047D03*
X139002925Y-84283047D03*
X139652925Y-84283047D03*
X140302925Y-84283047D03*
X140952925Y-84283047D03*
X141602925Y-84283047D03*
X142252925Y-84283047D03*
X142902925Y-84283047D03*
X143552925Y-84283047D03*
X144202925Y-84283047D03*
X144852925Y-84283047D03*
%TD*%
D23*
%TO.C,R11*%
X122710100Y-101977400D03*
X122710100Y-100327400D03*
%TD*%
D24*
%TO.C,U4*%
X122140100Y-90992400D03*
X122140100Y-92262400D03*
X122140100Y-93532400D03*
X122140100Y-94802400D03*
X127090100Y-94802400D03*
X127090100Y-93532400D03*
X127090100Y-92262400D03*
X127090100Y-90992400D03*
%TD*%
D25*
%TO.C,C13*%
X152555100Y-67637400D03*
X152555100Y-66087400D03*
%TD*%
D22*
%TO.C,F6*%
X125885100Y-63687400D03*
X125885100Y-60887400D03*
%TD*%
D26*
%TO.C,R1*%
X153140100Y-91627400D03*
X154965100Y-91627400D03*
%TD*%
%TO.C,R9*%
X130378842Y-71942400D03*
X132203842Y-71942400D03*
%TD*%
D19*
%TO.C,R16*%
X110532110Y-72931603D03*
X112182110Y-72931603D03*
%TD*%
D27*
%TO.C,D6*%
X105897600Y-87817400D03*
X107772600Y-87817400D03*
%TD*%
D28*
%TO.C,D2*%
X136115122Y-92777399D03*
X138015122Y-92777399D03*
X137065122Y-90477399D03*
%TD*%
D29*
%TO.C,C14*%
X144730902Y-86841872D03*
X146280902Y-86841872D03*
%TD*%
D26*
%TO.C,R23*%
X150015100Y-71942400D03*
X151840100Y-71942400D03*
%TD*%
D30*
%TO.C,F3*%
X135358698Y-94672400D03*
X135358698Y-97472400D03*
%TD*%
D31*
%TO.C,U7*%
X132235100Y-83942400D03*
X133505100Y-83942400D03*
X134775100Y-83942400D03*
X136045100Y-83942400D03*
X136045100Y-78992400D03*
X134775100Y-78992400D03*
X133505100Y-78992400D03*
X132235100Y-78992400D03*
%TD*%
D28*
%TO.C,D3*%
X123665099Y-69162399D03*
X125565099Y-69162399D03*
X124615099Y-66862399D03*
%TD*%
D29*
%TO.C,C17*%
X154320100Y-83372400D03*
X155870100Y-83372400D03*
%TD*%
D32*
%TO.C,C7*%
X121300074Y-76234726D03*
X121300074Y-75274726D03*
%TD*%
D24*
%TO.C,U3*%
X141825100Y-90992400D03*
X141825100Y-92262400D03*
X141825100Y-93532400D03*
X141825100Y-94802400D03*
X146775100Y-94802400D03*
X146775100Y-93532400D03*
X146775100Y-92262400D03*
X146775100Y-90992400D03*
%TD*%
D29*
%TO.C,C18*%
X149396594Y-70037400D03*
X150946594Y-70037400D03*
%TD*%
D16*
%TO.C,C10*%
X132870100Y-74202400D03*
X132870100Y-75752400D03*
%TD*%
D19*
%TO.C,R24*%
X146777100Y-89087400D03*
X148427100Y-89087400D03*
%TD*%
D17*
%TO.C,R14*%
X111167600Y-85277400D03*
X109517600Y-85277400D03*
%TD*%
D22*
%TO.C,F7*%
X160237544Y-62462302D03*
X160237544Y-59662302D03*
%TD*%
D27*
%TO.C,D8*%
X105897600Y-90357400D03*
X107772600Y-90357400D03*
%TD*%
D25*
%TO.C,C12*%
X161532821Y-81863122D03*
X161532821Y-80313122D03*
%TD*%
D19*
%TO.C,R28*%
X107355100Y-93877400D03*
X109005100Y-93877400D03*
%TD*%
%TO.C,R29*%
X107355100Y-112292400D03*
X109005100Y-112292400D03*
%TD*%
D23*
%TO.C,R7*%
X146840100Y-79562400D03*
X146840100Y-77912400D03*
%TD*%
D18*
%TO.C,F8*%
X154965100Y-59877400D03*
X157765100Y-59877400D03*
%TD*%
%TO.C,F2*%
X151155100Y-96992103D03*
X153955100Y-96992103D03*
%TD*%
D31*
%TO.C,U8*%
X148745100Y-83777400D03*
X150015100Y-83777400D03*
X151285100Y-83777400D03*
X152555100Y-83777400D03*
X152555100Y-78827400D03*
X151285100Y-78827400D03*
X150015100Y-78827400D03*
X148745100Y-78827400D03*
%TD*%
D33*
%TO.C,Y1*%
X122880099Y-76602399D03*
X125080099Y-76602399D03*
X125080099Y-74902399D03*
X122880099Y-74902399D03*
%TD*%
D31*
%TO.C,U9*%
X155095100Y-72512400D03*
X156365100Y-72512400D03*
X157635100Y-72512400D03*
X158905100Y-72512400D03*
X158905100Y-67562400D03*
X157635100Y-67562400D03*
X156365100Y-67562400D03*
X155095100Y-67562400D03*
%TD*%
D19*
%TO.C,R31*%
X110530100Y-112292400D03*
X112180100Y-112292400D03*
%TD*%
D26*
%TO.C,R10*%
X134497600Y-71943931D03*
X136322600Y-71943931D03*
%TD*%
D27*
%TO.C,D7*%
X105897600Y-85277400D03*
X107772600Y-85277400D03*
%TD*%
D20*
%TO.C,NTC1*%
X122710100Y-103692400D03*
X122710100Y-105342400D03*
%TD*%
D31*
%TO.C,U5*%
X157635100Y-89022400D03*
X158905100Y-89022400D03*
X160175100Y-89022400D03*
X161445100Y-89022400D03*
X161445100Y-84072400D03*
X160175100Y-84072400D03*
X158905100Y-84072400D03*
X157635100Y-84072400D03*
%TD*%
D17*
%TO.C,R15*%
X111280100Y-90357400D03*
X109630100Y-90357400D03*
%TD*%
D23*
%TO.C,R8*%
X130423024Y-79342511D03*
X130423024Y-77692511D03*
%TD*%
D34*
%TO.C,R2*%
X154965100Y-94167400D03*
X153140100Y-94167400D03*
%TD*%
D30*
%TO.C,F4*%
X137950100Y-94672400D03*
X137950100Y-97472400D03*
%TD*%
D13*
%TO.C,C9*%
X139930902Y-86836145D03*
X138380902Y-86836145D03*
%TD*%
D25*
%TO.C,C19*%
X129695100Y-84782400D03*
X129695100Y-83232400D03*
%TD*%
D15*
%TO.C,R4*%
X132362100Y-93860291D03*
X132362100Y-95685291D03*
%TD*%
D29*
%TO.C,C5*%
X130069641Y-86757479D03*
X131619641Y-86757479D03*
%TD*%
D22*
%TO.C,F9*%
X130330100Y-63687400D03*
X130330100Y-60887400D03*
%TD*%
%TO.C,F5*%
X123345100Y-63687400D03*
X123345100Y-60887400D03*
%TD*%
D19*
%TO.C,R27*%
X135155902Y-86841872D03*
X136805902Y-86841872D03*
%TD*%
D26*
%TO.C,R22*%
X146438302Y-71950193D03*
X148263302Y-71950193D03*
%TD*%
D17*
%TO.C,R32*%
X127652132Y-89291158D03*
X126002132Y-89291158D03*
%TD*%
D19*
%TO.C,R12*%
X110550770Y-63411065D03*
X112200770Y-63411065D03*
%TD*%
D25*
%TO.C,C4*%
X134422012Y-92709641D03*
X134422012Y-91159641D03*
%TD*%
D32*
%TO.C,C16*%
X137779836Y-75561114D03*
X137779836Y-74601114D03*
%TD*%
D35*
%TO.C,D5*%
X161760099Y-64592399D03*
X159860099Y-64592399D03*
X160810099Y-66692399D03*
%TD*%
D33*
%TO.C,Y2*%
X139390099Y-76137399D03*
X141590099Y-76137399D03*
X141590099Y-74437399D03*
X139390099Y-74437399D03*
%TD*%
D19*
%TO.C,R30*%
X110530100Y-93877400D03*
X112180100Y-93877400D03*
%TD*%
M02*
