%TF.GenerationSoftware,KiCad,Pcbnew,(7.0.0)*%
%TF.CreationDate,2023-02-19T15:54:43+01:00*%
%TF.ProjectId,bbb-can-bus-cape,6262622d-6361-46e2-9d62-75732d636170,rev?*%
%TF.SameCoordinates,Original*%
%TF.FileFunction,Legend,Bot*%
%TF.FilePolarity,Positive*%
%FSLAX46Y46*%
G04 Gerber Fmt 4.6, Leading zero omitted, Abs format (unit mm)*
G04 Created by KiCad (PCBNEW (7.0.0)) date 2023-02-19 15:54:43*
%MOMM*%
%LPD*%
G01*
G04 APERTURE LIST*
%ADD10C,0.010000*%
%ADD11R,1.727200X1.727200*%
%ADD12O,1.727200X1.727200*%
%ADD13C,3.250000*%
%ADD14R,1.500000X1.500000*%
%ADD15C,1.500000*%
%ADD16C,3.000000*%
%ADD17R,1.700000X1.700000*%
%ADD18O,1.700000X1.700000*%
%ADD19C,2.000000*%
G04 APERTURE END LIST*
%TO.C,REF\u002A\u002A*%
G36*
X124047566Y-81160764D02*
G01*
X124214992Y-81170002D01*
X124345617Y-81192652D01*
X124469442Y-81234371D01*
X124616465Y-81300814D01*
X124655644Y-81320034D01*
X125014405Y-81547209D01*
X125309583Y-81832931D01*
X125534251Y-82169092D01*
X125681483Y-82547582D01*
X125722570Y-82741788D01*
X125741795Y-83135775D01*
X125679587Y-83517377D01*
X125542322Y-83875404D01*
X125336379Y-84198664D01*
X125068137Y-84475970D01*
X124743973Y-84696131D01*
X124370266Y-84847956D01*
X124064442Y-84903504D01*
X123726951Y-84908508D01*
X123398672Y-84863330D01*
X123114315Y-84770121D01*
X122911018Y-84662421D01*
X122588475Y-84422662D01*
X122333915Y-84138426D01*
X122147362Y-83820163D01*
X122028840Y-83478326D01*
X121978375Y-83123366D01*
X121995990Y-82765733D01*
X122081710Y-82415879D01*
X122235561Y-82084256D01*
X122457566Y-81781314D01*
X122747750Y-81517504D01*
X123106139Y-81303279D01*
X123232389Y-81245846D01*
X123360354Y-81199317D01*
X123488282Y-81173210D01*
X123646514Y-81161766D01*
X123865390Y-81159231D01*
X124047566Y-81160764D01*
G37*
D10*
X124047566Y-81160764D02*
X124214992Y-81170002D01*
X124345617Y-81192652D01*
X124469442Y-81234371D01*
X124616465Y-81300814D01*
X124655644Y-81320034D01*
X125014405Y-81547209D01*
X125309583Y-81832931D01*
X125534251Y-82169092D01*
X125681483Y-82547582D01*
X125722570Y-82741788D01*
X125741795Y-83135775D01*
X125679587Y-83517377D01*
X125542322Y-83875404D01*
X125336379Y-84198664D01*
X125068137Y-84475970D01*
X124743973Y-84696131D01*
X124370266Y-84847956D01*
X124064442Y-84903504D01*
X123726951Y-84908508D01*
X123398672Y-84863330D01*
X123114315Y-84770121D01*
X122911018Y-84662421D01*
X122588475Y-84422662D01*
X122333915Y-84138426D01*
X122147362Y-83820163D01*
X122028840Y-83478326D01*
X121978375Y-83123366D01*
X121995990Y-82765733D01*
X122081710Y-82415879D01*
X122235561Y-82084256D01*
X122457566Y-81781314D01*
X122747750Y-81517504D01*
X123106139Y-81303279D01*
X123232389Y-81245846D01*
X123360354Y-81199317D01*
X123488282Y-81173210D01*
X123646514Y-81161766D01*
X123865390Y-81159231D01*
X124047566Y-81160764D01*
G36*
X133709545Y-87222353D02*
G01*
X134529343Y-87320340D01*
X135296767Y-87486964D01*
X136017259Y-87723715D01*
X136696264Y-88032085D01*
X137339225Y-88413565D01*
X137830442Y-88771901D01*
X138383140Y-89266687D01*
X138856544Y-89805981D01*
X139250498Y-90389547D01*
X139564849Y-91017149D01*
X139799441Y-91688552D01*
X139954120Y-92403518D01*
X139955325Y-92411677D01*
X139967406Y-92549363D01*
X139976367Y-92757138D01*
X139981790Y-93015789D01*
X139983256Y-93306105D01*
X139980348Y-93608873D01*
X139976087Y-93821068D01*
X139966216Y-94135905D01*
X139952085Y-94388189D01*
X139932185Y-94596120D01*
X139905009Y-94777892D01*
X139869049Y-94951704D01*
X139822576Y-95147256D01*
X139769655Y-95351277D01*
X139714138Y-95535794D01*
X139649522Y-95717552D01*
X139569304Y-95913299D01*
X139466982Y-96139779D01*
X139336054Y-96413740D01*
X139170016Y-96751928D01*
X138707769Y-97687278D01*
X137477260Y-96938123D01*
X137316208Y-96840044D01*
X137027100Y-96663838D01*
X136768636Y-96506122D01*
X136550242Y-96372662D01*
X136381347Y-96269221D01*
X136271378Y-96201562D01*
X136229763Y-96175450D01*
X136231006Y-96168188D01*
X136271732Y-96109684D01*
X136356251Y-96006902D01*
X136471453Y-95876082D01*
X136670495Y-95643100D01*
X136964827Y-95227176D01*
X137170012Y-94823633D01*
X137272477Y-94532022D01*
X137377195Y-94038783D01*
X137395756Y-93554161D01*
X137329425Y-93085184D01*
X137179467Y-92638880D01*
X136947146Y-92222276D01*
X136633725Y-91842400D01*
X136402880Y-91631024D01*
X135975897Y-91333238D01*
X135480406Y-91088893D01*
X134913867Y-90896818D01*
X134273744Y-90755846D01*
X134234004Y-90749450D01*
X133976437Y-90719902D01*
X133656414Y-90697906D01*
X133295803Y-90683639D01*
X132916470Y-90677279D01*
X132540282Y-90679005D01*
X132189107Y-90688994D01*
X131884811Y-90707424D01*
X131649261Y-90734475D01*
X131115691Y-90838157D01*
X130492412Y-91012616D01*
X129946740Y-91232026D01*
X129479098Y-91496094D01*
X129089908Y-91804526D01*
X128779593Y-92157030D01*
X128548574Y-92553312D01*
X128397275Y-92993078D01*
X128378497Y-93090648D01*
X128353977Y-93335160D01*
X128345973Y-93620911D01*
X128354046Y-93915889D01*
X128377755Y-94188079D01*
X128416662Y-94405468D01*
X128540546Y-94767611D01*
X128766713Y-95187871D01*
X129064345Y-95562076D01*
X129127042Y-95628123D01*
X129237967Y-95747799D01*
X129312628Y-95832381D01*
X129337464Y-95866742D01*
X129325585Y-95875202D01*
X129250583Y-95927275D01*
X129114397Y-96021348D01*
X128926047Y-96151205D01*
X128694550Y-96310631D01*
X128428925Y-96493410D01*
X128138189Y-96693326D01*
X126948623Y-97511023D01*
X126893894Y-97328355D01*
X126887692Y-97309294D01*
X126838432Y-97185213D01*
X126758999Y-97006319D01*
X126658950Y-96793606D01*
X126547839Y-96568069D01*
X126498712Y-96469790D01*
X126245089Y-95924060D01*
X126048962Y-95421067D01*
X125905316Y-94941466D01*
X125809132Y-94465910D01*
X125755395Y-93975055D01*
X125739087Y-93449554D01*
X125747367Y-93083842D01*
X125803521Y-92472148D01*
X125916772Y-91903882D01*
X126091883Y-91357907D01*
X126333624Y-90813089D01*
X126642274Y-90273777D01*
X127063044Y-89694990D01*
X127549533Y-89158259D01*
X128089699Y-88675404D01*
X128671499Y-88258243D01*
X129282891Y-87918596D01*
X129348296Y-87887766D01*
X129979606Y-87629572D01*
X130635609Y-87433381D01*
X131328837Y-87296660D01*
X132071823Y-87216872D01*
X132877099Y-87191482D01*
X133709545Y-87222353D01*
G37*
X133709545Y-87222353D02*
X134529343Y-87320340D01*
X135296767Y-87486964D01*
X136017259Y-87723715D01*
X136696264Y-88032085D01*
X137339225Y-88413565D01*
X137830442Y-88771901D01*
X138383140Y-89266687D01*
X138856544Y-89805981D01*
X139250498Y-90389547D01*
X139564849Y-91017149D01*
X139799441Y-91688552D01*
X139954120Y-92403518D01*
X139955325Y-92411677D01*
X139967406Y-92549363D01*
X139976367Y-92757138D01*
X139981790Y-93015789D01*
X139983256Y-93306105D01*
X139980348Y-93608873D01*
X139976087Y-93821068D01*
X139966216Y-94135905D01*
X139952085Y-94388189D01*
X139932185Y-94596120D01*
X139905009Y-94777892D01*
X139869049Y-94951704D01*
X139822576Y-95147256D01*
X139769655Y-95351277D01*
X139714138Y-95535794D01*
X139649522Y-95717552D01*
X139569304Y-95913299D01*
X139466982Y-96139779D01*
X139336054Y-96413740D01*
X139170016Y-96751928D01*
X138707769Y-97687278D01*
X137477260Y-96938123D01*
X137316208Y-96840044D01*
X137027100Y-96663838D01*
X136768636Y-96506122D01*
X136550242Y-96372662D01*
X136381347Y-96269221D01*
X136271378Y-96201562D01*
X136229763Y-96175450D01*
X136231006Y-96168188D01*
X136271732Y-96109684D01*
X136356251Y-96006902D01*
X136471453Y-95876082D01*
X136670495Y-95643100D01*
X136964827Y-95227176D01*
X137170012Y-94823633D01*
X137272477Y-94532022D01*
X137377195Y-94038783D01*
X137395756Y-93554161D01*
X137329425Y-93085184D01*
X137179467Y-92638880D01*
X136947146Y-92222276D01*
X136633725Y-91842400D01*
X136402880Y-91631024D01*
X135975897Y-91333238D01*
X135480406Y-91088893D01*
X134913867Y-90896818D01*
X134273744Y-90755846D01*
X134234004Y-90749450D01*
X133976437Y-90719902D01*
X133656414Y-90697906D01*
X133295803Y-90683639D01*
X132916470Y-90677279D01*
X132540282Y-90679005D01*
X132189107Y-90688994D01*
X131884811Y-90707424D01*
X131649261Y-90734475D01*
X131115691Y-90838157D01*
X130492412Y-91012616D01*
X129946740Y-91232026D01*
X129479098Y-91496094D01*
X129089908Y-91804526D01*
X128779593Y-92157030D01*
X128548574Y-92553312D01*
X128397275Y-92993078D01*
X128378497Y-93090648D01*
X128353977Y-93335160D01*
X128345973Y-93620911D01*
X128354046Y-93915889D01*
X128377755Y-94188079D01*
X128416662Y-94405468D01*
X128540546Y-94767611D01*
X128766713Y-95187871D01*
X129064345Y-95562076D01*
X129127042Y-95628123D01*
X129237967Y-95747799D01*
X129312628Y-95832381D01*
X129337464Y-95866742D01*
X129325585Y-95875202D01*
X129250583Y-95927275D01*
X129114397Y-96021348D01*
X128926047Y-96151205D01*
X128694550Y-96310631D01*
X128428925Y-96493410D01*
X128138189Y-96693326D01*
X126948623Y-97511023D01*
X126893894Y-97328355D01*
X126887692Y-97309294D01*
X126838432Y-97185213D01*
X126758999Y-97006319D01*
X126658950Y-96793606D01*
X126547839Y-96568069D01*
X126498712Y-96469790D01*
X126245089Y-95924060D01*
X126048962Y-95421067D01*
X125905316Y-94941466D01*
X125809132Y-94465910D01*
X125755395Y-93975055D01*
X125739087Y-93449554D01*
X125747367Y-93083842D01*
X125803521Y-92472148D01*
X125916772Y-91903882D01*
X126091883Y-91357907D01*
X126333624Y-90813089D01*
X126642274Y-90273777D01*
X127063044Y-89694990D01*
X127549533Y-89158259D01*
X128089699Y-88675404D01*
X128671499Y-88258243D01*
X129282891Y-87918596D01*
X129348296Y-87887766D01*
X129979606Y-87629572D01*
X130635609Y-87433381D01*
X131328837Y-87296660D01*
X132071823Y-87216872D01*
X132877099Y-87191482D01*
X133709545Y-87222353D01*
G36*
X134888536Y-107958049D02*
G01*
X135232508Y-107953771D01*
X135653751Y-107963431D01*
X136025250Y-107991049D01*
X136367212Y-108038764D01*
X136699842Y-108108715D01*
X137043347Y-108203040D01*
X137453939Y-108346076D01*
X138008220Y-108608783D01*
X138504685Y-108931030D01*
X138938643Y-109307887D01*
X139305401Y-109734424D01*
X139600267Y-110205713D01*
X139818549Y-110716822D01*
X139955555Y-111262822D01*
X139956654Y-111269392D01*
X139995048Y-111668418D01*
X139989924Y-112106844D01*
X139944440Y-112553411D01*
X139861758Y-112976857D01*
X139745035Y-113345922D01*
X139674005Y-113503453D01*
X139566044Y-113708619D01*
X139442566Y-113919442D01*
X139317161Y-114113922D01*
X139203419Y-114270061D01*
X139114930Y-114365862D01*
X139090637Y-114387854D01*
X139082144Y-114414072D01*
X139124304Y-114431595D01*
X139230555Y-114444509D01*
X139414337Y-114456901D01*
X139797290Y-114479661D01*
X139821136Y-117966393D01*
X139615299Y-117845765D01*
X139603131Y-117838575D01*
X139546001Y-117803497D01*
X139495107Y-117771675D01*
X139446026Y-117742938D01*
X139394338Y-117717114D01*
X139335620Y-117694032D01*
X139265452Y-117673521D01*
X139179411Y-117655409D01*
X139073077Y-117639526D01*
X138942027Y-117625700D01*
X138781841Y-117613760D01*
X138588096Y-117603534D01*
X138356371Y-117594852D01*
X138082245Y-117587542D01*
X137761296Y-117581433D01*
X137389103Y-117576354D01*
X136961244Y-117572133D01*
X136473298Y-117568600D01*
X135920842Y-117565582D01*
X135299456Y-117562910D01*
X134604719Y-117560410D01*
X133832207Y-117557914D01*
X132977501Y-117555248D01*
X132036179Y-117552242D01*
X125094422Y-117529482D01*
X125082520Y-115720073D01*
X125081718Y-115588490D01*
X125080130Y-115201345D01*
X125079807Y-114847243D01*
X125080685Y-114535849D01*
X125082697Y-114276829D01*
X125085776Y-114079848D01*
X125089858Y-113954571D01*
X125094876Y-113910665D01*
X125110779Y-113916283D01*
X125186175Y-113958185D01*
X125295819Y-114027589D01*
X125306301Y-114034512D01*
X125390958Y-114088323D01*
X125473326Y-114133442D01*
X125561890Y-114170632D01*
X125665134Y-114200659D01*
X125791542Y-114224289D01*
X125949598Y-114242286D01*
X126147787Y-114255415D01*
X126394593Y-114264442D01*
X126698501Y-114270131D01*
X127067995Y-114273247D01*
X127511559Y-114274556D01*
X128037678Y-114274822D01*
X128448444Y-114274346D01*
X128851723Y-114272885D01*
X129217389Y-114270547D01*
X129536537Y-114267436D01*
X129800264Y-114263659D01*
X129999665Y-114259322D01*
X130125835Y-114254531D01*
X130169870Y-114249393D01*
X130163035Y-114232822D01*
X130114906Y-114159973D01*
X130035863Y-114055935D01*
X129929566Y-113905108D01*
X129772945Y-113621725D01*
X129633236Y-113297829D01*
X129524592Y-112963653D01*
X129520829Y-112944583D01*
X131790426Y-112944583D01*
X131822019Y-113295831D01*
X131922304Y-113652553D01*
X132091875Y-114001704D01*
X132241943Y-114252063D01*
X136973775Y-114252063D01*
X137123060Y-114024464D01*
X137176838Y-113936938D01*
X137284270Y-113736525D01*
X137369822Y-113546507D01*
X137398789Y-113463291D01*
X137456617Y-113198502D01*
X137486147Y-112863711D01*
X137492292Y-112693471D01*
X137490894Y-112535446D01*
X137475112Y-112417812D01*
X137440615Y-112312300D01*
X137383075Y-112190643D01*
X137228943Y-111956844D01*
X137010911Y-111754296D01*
X136729936Y-111592164D01*
X136381616Y-111468906D01*
X135961545Y-111382978D01*
X135465320Y-111332837D01*
X134888536Y-111316943D01*
X134757407Y-111317715D01*
X134149835Y-111340566D01*
X133621164Y-111396055D01*
X133165818Y-111485529D01*
X132778218Y-111610340D01*
X132452786Y-111771837D01*
X132183943Y-111971369D01*
X132101893Y-112054148D01*
X131930955Y-112310695D01*
X131826936Y-112611855D01*
X131790426Y-112944583D01*
X129520829Y-112944583D01*
X129469191Y-112682887D01*
X129433877Y-112333208D01*
X129421642Y-111954757D01*
X129432501Y-111576741D01*
X129466470Y-111228364D01*
X129523564Y-110938832D01*
X129619737Y-110644023D01*
X129852880Y-110152213D01*
X130162829Y-109696832D01*
X130542446Y-109286284D01*
X130984594Y-108928968D01*
X131482136Y-108633286D01*
X131634705Y-108559879D01*
X132149329Y-108354169D01*
X132707861Y-108193341D01*
X133320146Y-108075363D01*
X133996031Y-107998204D01*
X134745360Y-107959831D01*
X134888536Y-107958049D01*
G37*
X134888536Y-107958049D02*
X135232508Y-107953771D01*
X135653751Y-107963431D01*
X136025250Y-107991049D01*
X136367212Y-108038764D01*
X136699842Y-108108715D01*
X137043347Y-108203040D01*
X137453939Y-108346076D01*
X138008220Y-108608783D01*
X138504685Y-108931030D01*
X138938643Y-109307887D01*
X139305401Y-109734424D01*
X139600267Y-110205713D01*
X139818549Y-110716822D01*
X139955555Y-111262822D01*
X139956654Y-111269392D01*
X139995048Y-111668418D01*
X139989924Y-112106844D01*
X139944440Y-112553411D01*
X139861758Y-112976857D01*
X139745035Y-113345922D01*
X139674005Y-113503453D01*
X139566044Y-113708619D01*
X139442566Y-113919442D01*
X139317161Y-114113922D01*
X139203419Y-114270061D01*
X139114930Y-114365862D01*
X139090637Y-114387854D01*
X139082144Y-114414072D01*
X139124304Y-114431595D01*
X139230555Y-114444509D01*
X139414337Y-114456901D01*
X139797290Y-114479661D01*
X139821136Y-117966393D01*
X139615299Y-117845765D01*
X139603131Y-117838575D01*
X139546001Y-117803497D01*
X139495107Y-117771675D01*
X139446026Y-117742938D01*
X139394338Y-117717114D01*
X139335620Y-117694032D01*
X139265452Y-117673521D01*
X139179411Y-117655409D01*
X139073077Y-117639526D01*
X138942027Y-117625700D01*
X138781841Y-117613760D01*
X138588096Y-117603534D01*
X138356371Y-117594852D01*
X138082245Y-117587542D01*
X137761296Y-117581433D01*
X137389103Y-117576354D01*
X136961244Y-117572133D01*
X136473298Y-117568600D01*
X135920842Y-117565582D01*
X135299456Y-117562910D01*
X134604719Y-117560410D01*
X133832207Y-117557914D01*
X132977501Y-117555248D01*
X132036179Y-117552242D01*
X125094422Y-117529482D01*
X125082520Y-115720073D01*
X125081718Y-115588490D01*
X125080130Y-115201345D01*
X125079807Y-114847243D01*
X125080685Y-114535849D01*
X125082697Y-114276829D01*
X125085776Y-114079848D01*
X125089858Y-113954571D01*
X125094876Y-113910665D01*
X125110779Y-113916283D01*
X125186175Y-113958185D01*
X125295819Y-114027589D01*
X125306301Y-114034512D01*
X125390958Y-114088323D01*
X125473326Y-114133442D01*
X125561890Y-114170632D01*
X125665134Y-114200659D01*
X125791542Y-114224289D01*
X125949598Y-114242286D01*
X126147787Y-114255415D01*
X126394593Y-114264442D01*
X126698501Y-114270131D01*
X127067995Y-114273247D01*
X127511559Y-114274556D01*
X128037678Y-114274822D01*
X128448444Y-114274346D01*
X128851723Y-114272885D01*
X129217389Y-114270547D01*
X129536537Y-114267436D01*
X129800264Y-114263659D01*
X129999665Y-114259322D01*
X130125835Y-114254531D01*
X130169870Y-114249393D01*
X130163035Y-114232822D01*
X130114906Y-114159973D01*
X130035863Y-114055935D01*
X129929566Y-113905108D01*
X129772945Y-113621725D01*
X129633236Y-113297829D01*
X129524592Y-112963653D01*
X129520829Y-112944583D01*
X131790426Y-112944583D01*
X131822019Y-113295831D01*
X131922304Y-113652553D01*
X132091875Y-114001704D01*
X132241943Y-114252063D01*
X136973775Y-114252063D01*
X137123060Y-114024464D01*
X137176838Y-113936938D01*
X137284270Y-113736525D01*
X137369822Y-113546507D01*
X137398789Y-113463291D01*
X137456617Y-113198502D01*
X137486147Y-112863711D01*
X137492292Y-112693471D01*
X137490894Y-112535446D01*
X137475112Y-112417812D01*
X137440615Y-112312300D01*
X137383075Y-112190643D01*
X137228943Y-111956844D01*
X137010911Y-111754296D01*
X136729936Y-111592164D01*
X136381616Y-111468906D01*
X135961545Y-111382978D01*
X135465320Y-111332837D01*
X134888536Y-111316943D01*
X134757407Y-111317715D01*
X134149835Y-111340566D01*
X133621164Y-111396055D01*
X133165818Y-111485529D01*
X132778218Y-111610340D01*
X132452786Y-111771837D01*
X132183943Y-111971369D01*
X132101893Y-112054148D01*
X131930955Y-112310695D01*
X131826936Y-112611855D01*
X131790426Y-112944583D01*
X129520829Y-112944583D01*
X129469191Y-112682887D01*
X129433877Y-112333208D01*
X129421642Y-111954757D01*
X129432501Y-111576741D01*
X129466470Y-111228364D01*
X129523564Y-110938832D01*
X129619737Y-110644023D01*
X129852880Y-110152213D01*
X130162829Y-109696832D01*
X130542446Y-109286284D01*
X130984594Y-108928968D01*
X131482136Y-108633286D01*
X131634705Y-108559879D01*
X132149329Y-108354169D01*
X132707861Y-108193341D01*
X133320146Y-108075363D01*
X133996031Y-107998204D01*
X134745360Y-107959831D01*
X134888536Y-107958049D01*
G36*
X136611467Y-97665484D02*
G01*
X136664873Y-97664812D01*
X137031897Y-97685255D01*
X137373394Y-97729438D01*
X137657863Y-97796108D01*
X137950540Y-97902488D01*
X138432869Y-98149077D01*
X138857227Y-98464268D01*
X139220723Y-98844799D01*
X139520465Y-99287405D01*
X139753560Y-99788824D01*
X139917118Y-100345790D01*
X139954008Y-100572907D01*
X139979645Y-100897453D01*
X139985411Y-101250906D01*
X139971770Y-101603729D01*
X139939186Y-101926385D01*
X139888124Y-102189339D01*
X139847921Y-102321471D01*
X139730277Y-102621567D01*
X139580915Y-102926622D01*
X139416033Y-103205163D01*
X139251830Y-103425716D01*
X139249459Y-103428426D01*
X139146985Y-103549285D01*
X139074017Y-103642272D01*
X139046214Y-103687454D01*
X139052852Y-103692394D01*
X139124551Y-103703571D01*
X139258278Y-103711338D01*
X139433132Y-103714249D01*
X139820050Y-103714249D01*
X139820050Y-105421238D01*
X139820042Y-105466679D01*
X139819375Y-105847788D01*
X139817716Y-106197567D01*
X139815188Y-106506067D01*
X139811914Y-106763335D01*
X139808019Y-106959418D01*
X139803625Y-107084367D01*
X139798857Y-107128227D01*
X139794690Y-107127206D01*
X139733180Y-107098510D01*
X139617618Y-107038359D01*
X139468839Y-106957529D01*
X139160014Y-106786830D01*
X135950874Y-106760486D01*
X135483463Y-106756570D01*
X134887345Y-106751092D01*
X134369829Y-106745343D01*
X133923596Y-106738856D01*
X133541327Y-106731168D01*
X133215703Y-106721814D01*
X132939405Y-106710330D01*
X132705115Y-106696251D01*
X132505512Y-106679113D01*
X132333280Y-106658450D01*
X132181098Y-106633799D01*
X132041648Y-106604695D01*
X131907612Y-106570673D01*
X131771669Y-106531269D01*
X131626501Y-106486019D01*
X131171407Y-106307752D01*
X130750804Y-106063623D01*
X130390703Y-105759594D01*
X130089220Y-105392881D01*
X129844471Y-104960700D01*
X129654571Y-104460269D01*
X129517637Y-103888803D01*
X129431785Y-103243520D01*
X129414713Y-103017985D01*
X129402230Y-102638148D01*
X129413471Y-102261670D01*
X129450331Y-101870925D01*
X129514704Y-101448287D01*
X129608485Y-100976130D01*
X129733571Y-100436830D01*
X129763837Y-100312172D01*
X129838314Y-99999122D01*
X129906889Y-99702413D01*
X129965512Y-99440038D01*
X130010131Y-99229991D01*
X130036698Y-99090266D01*
X130089647Y-98767895D01*
X131188092Y-99221107D01*
X131462349Y-99334470D01*
X131731083Y-99445995D01*
X131960525Y-99541683D01*
X132139450Y-99616837D01*
X132256629Y-99666759D01*
X132300838Y-99686751D01*
X132301471Y-99689896D01*
X132281734Y-99747831D01*
X132231152Y-99861752D01*
X132158730Y-100011107D01*
X132017692Y-100321537D01*
X131863482Y-100748709D01*
X131745386Y-101185918D01*
X131666372Y-101616066D01*
X131629404Y-102022057D01*
X131637449Y-102386792D01*
X131693473Y-102693173D01*
X131782366Y-102907006D01*
X131964536Y-103149855D01*
X132211672Y-103336802D01*
X132516171Y-103462495D01*
X132870430Y-103521583D01*
X133196931Y-103542390D01*
X133199078Y-102758335D01*
X135292122Y-102758335D01*
X135292125Y-102808090D01*
X135294922Y-103037234D01*
X135301683Y-103234068D01*
X135311521Y-103379018D01*
X135323549Y-103452511D01*
X135327454Y-103460968D01*
X135351976Y-103488311D01*
X135401254Y-103507676D01*
X135488543Y-103520403D01*
X135627098Y-103527834D01*
X135830173Y-103531310D01*
X136111025Y-103532170D01*
X136351920Y-103530900D01*
X136605033Y-103524748D01*
X136787988Y-103512697D01*
X136912695Y-103493868D01*
X136991069Y-103467385D01*
X137047033Y-103433318D01*
X137199592Y-103305025D01*
X137358415Y-103133129D01*
X137499926Y-102944725D01*
X137600548Y-102766910D01*
X137637468Y-102668254D01*
X137686623Y-102441090D01*
X137711754Y-102144398D01*
X137707949Y-101831589D01*
X137656256Y-101534541D01*
X137549468Y-101286600D01*
X137382772Y-101072085D01*
X137321113Y-101011741D01*
X137110837Y-100854625D01*
X136884188Y-100769617D01*
X136611467Y-100744088D01*
X136467387Y-100751004D01*
X136170783Y-100819402D01*
X135916203Y-100963091D01*
X135700784Y-101184689D01*
X135521659Y-101486810D01*
X135375963Y-101872071D01*
X135337728Y-102027385D01*
X135311549Y-102215412D01*
X135297010Y-102452043D01*
X135292122Y-102758335D01*
X133199078Y-102758335D01*
X133199905Y-102456187D01*
X133202977Y-102089879D01*
X133213886Y-101684716D01*
X133234474Y-101338596D01*
X133266742Y-101033615D01*
X133312692Y-100751870D01*
X133374326Y-100475457D01*
X133453645Y-100186471D01*
X133604624Y-99754079D01*
X133853253Y-99245495D01*
X134157802Y-98799147D01*
X134513986Y-98419439D01*
X134917523Y-98110773D01*
X135364129Y-97877550D01*
X135849520Y-97724174D01*
X135980248Y-97700154D01*
X136303823Y-97669360D01*
X136611467Y-97665484D01*
G37*
X136611467Y-97665484D02*
X136664873Y-97664812D01*
X137031897Y-97685255D01*
X137373394Y-97729438D01*
X137657863Y-97796108D01*
X137950540Y-97902488D01*
X138432869Y-98149077D01*
X138857227Y-98464268D01*
X139220723Y-98844799D01*
X139520465Y-99287405D01*
X139753560Y-99788824D01*
X139917118Y-100345790D01*
X139954008Y-100572907D01*
X139979645Y-100897453D01*
X139985411Y-101250906D01*
X139971770Y-101603729D01*
X139939186Y-101926385D01*
X139888124Y-102189339D01*
X139847921Y-102321471D01*
X139730277Y-102621567D01*
X139580915Y-102926622D01*
X139416033Y-103205163D01*
X139251830Y-103425716D01*
X139249459Y-103428426D01*
X139146985Y-103549285D01*
X139074017Y-103642272D01*
X139046214Y-103687454D01*
X139052852Y-103692394D01*
X139124551Y-103703571D01*
X139258278Y-103711338D01*
X139433132Y-103714249D01*
X139820050Y-103714249D01*
X139820050Y-105421238D01*
X139820042Y-105466679D01*
X139819375Y-105847788D01*
X139817716Y-106197567D01*
X139815188Y-106506067D01*
X139811914Y-106763335D01*
X139808019Y-106959418D01*
X139803625Y-107084367D01*
X139798857Y-107128227D01*
X139794690Y-107127206D01*
X139733180Y-107098510D01*
X139617618Y-107038359D01*
X139468839Y-106957529D01*
X139160014Y-106786830D01*
X135950874Y-106760486D01*
X135483463Y-106756570D01*
X134887345Y-106751092D01*
X134369829Y-106745343D01*
X133923596Y-106738856D01*
X133541327Y-106731168D01*
X133215703Y-106721814D01*
X132939405Y-106710330D01*
X132705115Y-106696251D01*
X132505512Y-106679113D01*
X132333280Y-106658450D01*
X132181098Y-106633799D01*
X132041648Y-106604695D01*
X131907612Y-106570673D01*
X131771669Y-106531269D01*
X131626501Y-106486019D01*
X131171407Y-106307752D01*
X130750804Y-106063623D01*
X130390703Y-105759594D01*
X130089220Y-105392881D01*
X129844471Y-104960700D01*
X129654571Y-104460269D01*
X129517637Y-103888803D01*
X129431785Y-103243520D01*
X129414713Y-103017985D01*
X129402230Y-102638148D01*
X129413471Y-102261670D01*
X129450331Y-101870925D01*
X129514704Y-101448287D01*
X129608485Y-100976130D01*
X129733571Y-100436830D01*
X129763837Y-100312172D01*
X129838314Y-99999122D01*
X129906889Y-99702413D01*
X129965512Y-99440038D01*
X130010131Y-99229991D01*
X130036698Y-99090266D01*
X130089647Y-98767895D01*
X131188092Y-99221107D01*
X131462349Y-99334470D01*
X131731083Y-99445995D01*
X131960525Y-99541683D01*
X132139450Y-99616837D01*
X132256629Y-99666759D01*
X132300838Y-99686751D01*
X132301471Y-99689896D01*
X132281734Y-99747831D01*
X132231152Y-99861752D01*
X132158730Y-100011107D01*
X132017692Y-100321537D01*
X131863482Y-100748709D01*
X131745386Y-101185918D01*
X131666372Y-101616066D01*
X131629404Y-102022057D01*
X131637449Y-102386792D01*
X131693473Y-102693173D01*
X131782366Y-102907006D01*
X131964536Y-103149855D01*
X132211672Y-103336802D01*
X132516171Y-103462495D01*
X132870430Y-103521583D01*
X133196931Y-103542390D01*
X133199078Y-102758335D01*
X135292122Y-102758335D01*
X135292125Y-102808090D01*
X135294922Y-103037234D01*
X135301683Y-103234068D01*
X135311521Y-103379018D01*
X135323549Y-103452511D01*
X135327454Y-103460968D01*
X135351976Y-103488311D01*
X135401254Y-103507676D01*
X135488543Y-103520403D01*
X135627098Y-103527834D01*
X135830173Y-103531310D01*
X136111025Y-103532170D01*
X136351920Y-103530900D01*
X136605033Y-103524748D01*
X136787988Y-103512697D01*
X136912695Y-103493868D01*
X136991069Y-103467385D01*
X137047033Y-103433318D01*
X137199592Y-103305025D01*
X137358415Y-103133129D01*
X137499926Y-102944725D01*
X137600548Y-102766910D01*
X137637468Y-102668254D01*
X137686623Y-102441090D01*
X137711754Y-102144398D01*
X137707949Y-101831589D01*
X137656256Y-101534541D01*
X137549468Y-101286600D01*
X137382772Y-101072085D01*
X137321113Y-101011741D01*
X137110837Y-100854625D01*
X136884188Y-100769617D01*
X136611467Y-100744088D01*
X136467387Y-100751004D01*
X136170783Y-100819402D01*
X135916203Y-100963091D01*
X135700784Y-101184689D01*
X135521659Y-101486810D01*
X135375963Y-101872071D01*
X135337728Y-102027385D01*
X135311549Y-102215412D01*
X135297010Y-102452043D01*
X135292122Y-102758335D01*
X133199078Y-102758335D01*
X133199905Y-102456187D01*
X133202977Y-102089879D01*
X133213886Y-101684716D01*
X133234474Y-101338596D01*
X133266742Y-101033615D01*
X133312692Y-100751870D01*
X133374326Y-100475457D01*
X133453645Y-100186471D01*
X133604624Y-99754079D01*
X133853253Y-99245495D01*
X134157802Y-98799147D01*
X134513986Y-98419439D01*
X134917523Y-98110773D01*
X135364129Y-97877550D01*
X135849520Y-97724174D01*
X135980248Y-97700154D01*
X136303823Y-97669360D01*
X136611467Y-97665484D01*
G36*
X139774530Y-67125928D02*
G01*
X139910021Y-67127155D01*
X140263013Y-67131842D01*
X140567082Y-67137659D01*
X140825992Y-67144725D01*
X141043507Y-67153158D01*
X141223390Y-67163077D01*
X141369408Y-67174600D01*
X141485322Y-67187846D01*
X141574898Y-67202933D01*
X141641899Y-67219980D01*
X141690089Y-67239105D01*
X141723233Y-67260426D01*
X141745095Y-67284063D01*
X141759439Y-67310133D01*
X141770028Y-67338755D01*
X141780627Y-67370048D01*
X141795000Y-67404129D01*
X141802203Y-67423305D01*
X141810069Y-67458481D01*
X141817276Y-67510748D01*
X141823852Y-67583803D01*
X141829827Y-67681344D01*
X141835230Y-67807068D01*
X141840090Y-67964672D01*
X141844434Y-68157855D01*
X141848293Y-68390313D01*
X141851695Y-68665744D01*
X141854669Y-68987845D01*
X141857244Y-69360314D01*
X141859449Y-69786848D01*
X141861312Y-70271144D01*
X141862863Y-70816901D01*
X141864131Y-71427815D01*
X141865144Y-72107584D01*
X141865931Y-72859905D01*
X141866521Y-73688475D01*
X141866944Y-74596993D01*
X141867227Y-75589156D01*
X141867400Y-76668660D01*
X141867434Y-77010753D01*
X141867455Y-78066829D01*
X141867323Y-79036640D01*
X141867009Y-79923842D01*
X141866487Y-80732087D01*
X141865732Y-81465030D01*
X141864716Y-82126323D01*
X141863412Y-82719620D01*
X141861796Y-83248576D01*
X141859839Y-83716844D01*
X141857515Y-84128078D01*
X141854798Y-84485931D01*
X141851661Y-84794057D01*
X141848079Y-85056110D01*
X141844023Y-85275744D01*
X141839468Y-85456612D01*
X141834388Y-85602367D01*
X141828755Y-85716664D01*
X141822543Y-85803157D01*
X141815726Y-85865499D01*
X141808277Y-85907343D01*
X141800170Y-85932344D01*
X141796562Y-85940299D01*
X141784710Y-85972862D01*
X141776055Y-86002724D01*
X141766826Y-86030006D01*
X141753256Y-86054828D01*
X141731574Y-86077312D01*
X141698010Y-86097579D01*
X141648796Y-86115750D01*
X141580163Y-86131946D01*
X141488340Y-86146288D01*
X141369558Y-86158897D01*
X141220048Y-86169894D01*
X141036040Y-86179400D01*
X140813766Y-86187537D01*
X140549455Y-86194425D01*
X140239338Y-86200186D01*
X139879646Y-86204940D01*
X139466609Y-86208808D01*
X138996459Y-86211912D01*
X138465424Y-86214373D01*
X137869737Y-86216312D01*
X137205628Y-86217849D01*
X136469326Y-86219106D01*
X135657064Y-86220205D01*
X134765071Y-86221265D01*
X133789578Y-86222408D01*
X132726815Y-86223755D01*
X132598156Y-86223930D01*
X131542128Y-86225432D01*
X130572929Y-86226869D01*
X129686789Y-86228134D01*
X128879937Y-86229121D01*
X128148601Y-86229722D01*
X127489009Y-86229833D01*
X126897392Y-86229346D01*
X126369978Y-86228156D01*
X125902995Y-86226156D01*
X125492673Y-86223239D01*
X125135241Y-86219300D01*
X124826927Y-86214231D01*
X124563960Y-86207927D01*
X124342569Y-86200282D01*
X124158984Y-86191188D01*
X124009432Y-86180541D01*
X123890143Y-86168232D01*
X123797345Y-86154157D01*
X123727269Y-86138208D01*
X123676141Y-86120280D01*
X123640192Y-86100265D01*
X123615650Y-86078058D01*
X123598744Y-86053553D01*
X123585703Y-86026643D01*
X123572756Y-85997221D01*
X123556132Y-85965182D01*
X123550834Y-85955807D01*
X123499555Y-85813950D01*
X123478480Y-85658659D01*
X123478487Y-85483604D01*
X123876777Y-85480686D01*
X123922610Y-85479947D01*
X124388504Y-85424306D01*
X124826869Y-85282594D01*
X125233060Y-85056778D01*
X125602435Y-84748828D01*
X125753088Y-84583574D01*
X126002796Y-84215619D01*
X126176928Y-83814145D01*
X126275394Y-83390845D01*
X126298099Y-82957412D01*
X126244950Y-82525539D01*
X126115854Y-82106918D01*
X125910718Y-81713241D01*
X125629449Y-81356203D01*
X125530289Y-81256950D01*
X125267723Y-81047154D01*
X129623634Y-81047154D01*
X129623634Y-84638282D01*
X134346304Y-84651265D01*
X139068974Y-84664249D01*
X139340858Y-84791554D01*
X139475617Y-84858672D01*
X139610612Y-84934674D01*
X139693636Y-84992068D01*
X139693795Y-84992212D01*
X139713085Y-85006146D01*
X139729035Y-85004829D01*
X139741962Y-84980684D01*
X139752181Y-84926131D01*
X139760011Y-84833591D01*
X139765767Y-84695486D01*
X139769766Y-84504237D01*
X139772325Y-84252264D01*
X139773761Y-83931989D01*
X139774390Y-83535832D01*
X139774530Y-83056215D01*
X139774530Y-81047154D01*
X139160014Y-81386830D01*
X130238150Y-81386830D01*
X129623634Y-81047154D01*
X125267723Y-81047154D01*
X125163140Y-80963590D01*
X124764698Y-80755427D01*
X124332393Y-80631347D01*
X123863656Y-80590235D01*
X123478472Y-80590235D01*
X123478472Y-80239736D01*
X125936537Y-80239736D01*
X126080635Y-80039448D01*
X126216066Y-79870059D01*
X126436966Y-79631374D01*
X126713817Y-79360647D01*
X127036067Y-79068128D01*
X127393168Y-78764071D01*
X127488663Y-78685769D01*
X127652450Y-78552457D01*
X127867331Y-78378199D01*
X128126135Y-78168769D01*
X128421689Y-77929939D01*
X128746822Y-77667484D01*
X129094361Y-77387174D01*
X129457135Y-77094785D01*
X129623634Y-76960675D01*
X129827972Y-76796089D01*
X130199699Y-76496858D01*
X130565145Y-76202866D01*
X130917137Y-75919886D01*
X131248504Y-75653691D01*
X131552074Y-75410054D01*
X131820675Y-75194747D01*
X132047134Y-75013545D01*
X132224280Y-74872220D01*
X132344940Y-74776545D01*
X132401944Y-74732293D01*
X132423364Y-74728641D01*
X132464107Y-74740790D01*
X132528205Y-74772272D01*
X132620204Y-74826229D01*
X132744651Y-74905805D01*
X132906093Y-75014141D01*
X133109077Y-75154381D01*
X133358149Y-75329666D01*
X133657856Y-75543139D01*
X134012745Y-75797943D01*
X134427362Y-76097220D01*
X134906253Y-76444113D01*
X135453966Y-76841764D01*
X135889941Y-77158609D01*
X136421428Y-77545168D01*
X136888177Y-77885196D01*
X137295366Y-78182649D01*
X137648177Y-78441480D01*
X137951789Y-78665644D01*
X138211383Y-78859096D01*
X138432138Y-79025788D01*
X138619234Y-79169677D01*
X138777852Y-79294715D01*
X138913172Y-79404858D01*
X139030374Y-79504060D01*
X139134637Y-79596274D01*
X139231142Y-79685457D01*
X139325070Y-79775560D01*
X139421599Y-79870540D01*
X139774530Y-80220559D01*
X139774625Y-77867673D01*
X139774721Y-75514787D01*
X139489557Y-75529572D01*
X139475228Y-75530288D01*
X139361229Y-75533095D01*
X139252003Y-75527775D01*
X139141567Y-75510770D01*
X139023938Y-75478521D01*
X138893133Y-75427469D01*
X138743169Y-75354056D01*
X138568064Y-75254722D01*
X138361833Y-75125909D01*
X138118495Y-74964059D01*
X137832067Y-74765611D01*
X137496564Y-74527009D01*
X137106005Y-74244691D01*
X136654406Y-73915101D01*
X136135784Y-73534679D01*
X134307639Y-72191848D01*
X136427320Y-72180017D01*
X136625043Y-72178968D01*
X137157619Y-72177119D01*
X137610612Y-72177960D01*
X137992592Y-72182481D01*
X138312133Y-72191672D01*
X138577808Y-72206524D01*
X138798188Y-72228025D01*
X138981846Y-72257167D01*
X139137355Y-72294939D01*
X139273287Y-72342332D01*
X139398216Y-72400334D01*
X139520713Y-72469938D01*
X139649351Y-72552132D01*
X139774530Y-72634755D01*
X139774530Y-68340799D01*
X139626591Y-68451715D01*
X139603187Y-68469086D01*
X139388684Y-68607961D01*
X139171844Y-68703694D01*
X138923380Y-68766559D01*
X138614002Y-68806825D01*
X138600516Y-68807931D01*
X138472904Y-68813774D01*
X138259992Y-68819050D01*
X137966645Y-68823735D01*
X137597728Y-68827807D01*
X137158106Y-68831243D01*
X136652644Y-68834019D01*
X136086208Y-68836114D01*
X135463663Y-68837504D01*
X134789873Y-68838165D01*
X134069704Y-68838076D01*
X133308021Y-68837214D01*
X132509690Y-68835554D01*
X131793586Y-68833797D01*
X131014089Y-68831917D01*
X130316672Y-68830065D01*
X129696448Y-68828011D01*
X129148530Y-68825521D01*
X128668032Y-68822364D01*
X128250069Y-68818306D01*
X127889754Y-68813115D01*
X127582202Y-68806560D01*
X127322525Y-68798407D01*
X127105839Y-68788424D01*
X126927257Y-68776379D01*
X126781892Y-68762040D01*
X126664859Y-68745174D01*
X126571272Y-68725549D01*
X126496244Y-68702932D01*
X126434889Y-68677091D01*
X126382322Y-68647794D01*
X126333657Y-68614808D01*
X126284006Y-68577902D01*
X126228484Y-68536841D01*
X126172847Y-68497127D01*
X126062839Y-68420366D01*
X125993437Y-68374387D01*
X125990530Y-68373277D01*
X125977405Y-68389331D01*
X125966454Y-68445987D01*
X125957509Y-68549549D01*
X125950401Y-68706320D01*
X125944962Y-68922606D01*
X125941024Y-69204711D01*
X125938419Y-69558938D01*
X125936979Y-69991592D01*
X125936537Y-70508978D01*
X125936537Y-72677897D01*
X126072386Y-72563588D01*
X126165690Y-72497339D01*
X126385684Y-72387064D01*
X126659295Y-72290427D01*
X126962800Y-72216670D01*
X126991613Y-72211969D01*
X127143506Y-72197982D01*
X127378254Y-72187389D01*
X127697483Y-72180164D01*
X128102817Y-72176277D01*
X128595882Y-72175701D01*
X129178303Y-72178407D01*
X131122758Y-72191848D01*
X129367072Y-73580199D01*
X129316781Y-73619964D01*
X128871074Y-73972036D01*
X128489367Y-74272612D01*
X128165170Y-74526475D01*
X127891992Y-74738408D01*
X127663344Y-74913195D01*
X127472736Y-75055619D01*
X127313676Y-75170465D01*
X127179676Y-75262515D01*
X127064244Y-75336553D01*
X126960891Y-75397362D01*
X126863126Y-75449727D01*
X126764460Y-75498430D01*
X126589811Y-75573353D01*
X126405571Y-75621753D01*
X126206844Y-75634627D01*
X125936537Y-75633334D01*
X125936537Y-80239736D01*
X123478472Y-80239736D01*
X123478472Y-74055895D01*
X123478454Y-73647661D01*
X123478336Y-72770657D01*
X123478249Y-71978410D01*
X123478369Y-71266538D01*
X123478867Y-70630659D01*
X123479918Y-70066394D01*
X123481694Y-69569361D01*
X123484369Y-69135178D01*
X123488115Y-68759466D01*
X123493106Y-68437842D01*
X123499516Y-68165927D01*
X123507517Y-67939338D01*
X123517283Y-67753694D01*
X123528986Y-67604616D01*
X123542801Y-67487721D01*
X123558900Y-67398629D01*
X123577456Y-67332958D01*
X123598643Y-67286328D01*
X123622634Y-67254358D01*
X123649602Y-67232665D01*
X123679720Y-67216871D01*
X123713162Y-67202593D01*
X123750101Y-67185450D01*
X123750704Y-67185142D01*
X123774884Y-67176819D01*
X123815373Y-67169184D01*
X123875907Y-67162209D01*
X123960224Y-67155865D01*
X124072059Y-67150122D01*
X124215149Y-67144952D01*
X124393230Y-67140325D01*
X124610040Y-67136213D01*
X124869314Y-67132586D01*
X125174789Y-67129416D01*
X125530202Y-67126674D01*
X125939289Y-67124331D01*
X126405787Y-67122357D01*
X126933432Y-67120724D01*
X127525960Y-67119403D01*
X128187109Y-67118364D01*
X128920615Y-67117580D01*
X129730213Y-67117020D01*
X130619642Y-67116656D01*
X131592637Y-67116459D01*
X132652935Y-67116400D01*
X132861232Y-67116397D01*
X133910479Y-67116296D01*
X134873163Y-67116140D01*
X135753047Y-67116049D01*
X136553895Y-67116140D01*
X137279471Y-67116531D01*
X137933540Y-67117343D01*
X138519865Y-67118693D01*
X139042211Y-67120699D01*
X139504342Y-67123480D01*
X139774530Y-67125928D01*
G37*
X139774530Y-67125928D02*
X139910021Y-67127155D01*
X140263013Y-67131842D01*
X140567082Y-67137659D01*
X140825992Y-67144725D01*
X141043507Y-67153158D01*
X141223390Y-67163077D01*
X141369408Y-67174600D01*
X141485322Y-67187846D01*
X141574898Y-67202933D01*
X141641899Y-67219980D01*
X141690089Y-67239105D01*
X141723233Y-67260426D01*
X141745095Y-67284063D01*
X141759439Y-67310133D01*
X141770028Y-67338755D01*
X141780627Y-67370048D01*
X141795000Y-67404129D01*
X141802203Y-67423305D01*
X141810069Y-67458481D01*
X141817276Y-67510748D01*
X141823852Y-67583803D01*
X141829827Y-67681344D01*
X141835230Y-67807068D01*
X141840090Y-67964672D01*
X141844434Y-68157855D01*
X141848293Y-68390313D01*
X141851695Y-68665744D01*
X141854669Y-68987845D01*
X141857244Y-69360314D01*
X141859449Y-69786848D01*
X141861312Y-70271144D01*
X141862863Y-70816901D01*
X141864131Y-71427815D01*
X141865144Y-72107584D01*
X141865931Y-72859905D01*
X141866521Y-73688475D01*
X141866944Y-74596993D01*
X141867227Y-75589156D01*
X141867400Y-76668660D01*
X141867434Y-77010753D01*
X141867455Y-78066829D01*
X141867323Y-79036640D01*
X141867009Y-79923842D01*
X141866487Y-80732087D01*
X141865732Y-81465030D01*
X141864716Y-82126323D01*
X141863412Y-82719620D01*
X141861796Y-83248576D01*
X141859839Y-83716844D01*
X141857515Y-84128078D01*
X141854798Y-84485931D01*
X141851661Y-84794057D01*
X141848079Y-85056110D01*
X141844023Y-85275744D01*
X141839468Y-85456612D01*
X141834388Y-85602367D01*
X141828755Y-85716664D01*
X141822543Y-85803157D01*
X141815726Y-85865499D01*
X141808277Y-85907343D01*
X141800170Y-85932344D01*
X141796562Y-85940299D01*
X141784710Y-85972862D01*
X141776055Y-86002724D01*
X141766826Y-86030006D01*
X141753256Y-86054828D01*
X141731574Y-86077312D01*
X141698010Y-86097579D01*
X141648796Y-86115750D01*
X141580163Y-86131946D01*
X141488340Y-86146288D01*
X141369558Y-86158897D01*
X141220048Y-86169894D01*
X141036040Y-86179400D01*
X140813766Y-86187537D01*
X140549455Y-86194425D01*
X140239338Y-86200186D01*
X139879646Y-86204940D01*
X139466609Y-86208808D01*
X138996459Y-86211912D01*
X138465424Y-86214373D01*
X137869737Y-86216312D01*
X137205628Y-86217849D01*
X136469326Y-86219106D01*
X135657064Y-86220205D01*
X134765071Y-86221265D01*
X133789578Y-86222408D01*
X132726815Y-86223755D01*
X132598156Y-86223930D01*
X131542128Y-86225432D01*
X130572929Y-86226869D01*
X129686789Y-86228134D01*
X128879937Y-86229121D01*
X128148601Y-86229722D01*
X127489009Y-86229833D01*
X126897392Y-86229346D01*
X126369978Y-86228156D01*
X125902995Y-86226156D01*
X125492673Y-86223239D01*
X125135241Y-86219300D01*
X124826927Y-86214231D01*
X124563960Y-86207927D01*
X124342569Y-86200282D01*
X124158984Y-86191188D01*
X124009432Y-86180541D01*
X123890143Y-86168232D01*
X123797345Y-86154157D01*
X123727269Y-86138208D01*
X123676141Y-86120280D01*
X123640192Y-86100265D01*
X123615650Y-86078058D01*
X123598744Y-86053553D01*
X123585703Y-86026643D01*
X123572756Y-85997221D01*
X123556132Y-85965182D01*
X123550834Y-85955807D01*
X123499555Y-85813950D01*
X123478480Y-85658659D01*
X123478487Y-85483604D01*
X123876777Y-85480686D01*
X123922610Y-85479947D01*
X124388504Y-85424306D01*
X124826869Y-85282594D01*
X125233060Y-85056778D01*
X125602435Y-84748828D01*
X125753088Y-84583574D01*
X126002796Y-84215619D01*
X126176928Y-83814145D01*
X126275394Y-83390845D01*
X126298099Y-82957412D01*
X126244950Y-82525539D01*
X126115854Y-82106918D01*
X125910718Y-81713241D01*
X125629449Y-81356203D01*
X125530289Y-81256950D01*
X125267723Y-81047154D01*
X129623634Y-81047154D01*
X129623634Y-84638282D01*
X134346304Y-84651265D01*
X139068974Y-84664249D01*
X139340858Y-84791554D01*
X139475617Y-84858672D01*
X139610612Y-84934674D01*
X139693636Y-84992068D01*
X139693795Y-84992212D01*
X139713085Y-85006146D01*
X139729035Y-85004829D01*
X139741962Y-84980684D01*
X139752181Y-84926131D01*
X139760011Y-84833591D01*
X139765767Y-84695486D01*
X139769766Y-84504237D01*
X139772325Y-84252264D01*
X139773761Y-83931989D01*
X139774390Y-83535832D01*
X139774530Y-83056215D01*
X139774530Y-81047154D01*
X139160014Y-81386830D01*
X130238150Y-81386830D01*
X129623634Y-81047154D01*
X125267723Y-81047154D01*
X125163140Y-80963590D01*
X124764698Y-80755427D01*
X124332393Y-80631347D01*
X123863656Y-80590235D01*
X123478472Y-80590235D01*
X123478472Y-80239736D01*
X125936537Y-80239736D01*
X126080635Y-80039448D01*
X126216066Y-79870059D01*
X126436966Y-79631374D01*
X126713817Y-79360647D01*
X127036067Y-79068128D01*
X127393168Y-78764071D01*
X127488663Y-78685769D01*
X127652450Y-78552457D01*
X127867331Y-78378199D01*
X128126135Y-78168769D01*
X128421689Y-77929939D01*
X128746822Y-77667484D01*
X129094361Y-77387174D01*
X129457135Y-77094785D01*
X129623634Y-76960675D01*
X129827972Y-76796089D01*
X130199699Y-76496858D01*
X130565145Y-76202866D01*
X130917137Y-75919886D01*
X131248504Y-75653691D01*
X131552074Y-75410054D01*
X131820675Y-75194747D01*
X132047134Y-75013545D01*
X132224280Y-74872220D01*
X132344940Y-74776545D01*
X132401944Y-74732293D01*
X132423364Y-74728641D01*
X132464107Y-74740790D01*
X132528205Y-74772272D01*
X132620204Y-74826229D01*
X132744651Y-74905805D01*
X132906093Y-75014141D01*
X133109077Y-75154381D01*
X133358149Y-75329666D01*
X133657856Y-75543139D01*
X134012745Y-75797943D01*
X134427362Y-76097220D01*
X134906253Y-76444113D01*
X135453966Y-76841764D01*
X135889941Y-77158609D01*
X136421428Y-77545168D01*
X136888177Y-77885196D01*
X137295366Y-78182649D01*
X137648177Y-78441480D01*
X137951789Y-78665644D01*
X138211383Y-78859096D01*
X138432138Y-79025788D01*
X138619234Y-79169677D01*
X138777852Y-79294715D01*
X138913172Y-79404858D01*
X139030374Y-79504060D01*
X139134637Y-79596274D01*
X139231142Y-79685457D01*
X139325070Y-79775560D01*
X139421599Y-79870540D01*
X139774530Y-80220559D01*
X139774625Y-77867673D01*
X139774721Y-75514787D01*
X139489557Y-75529572D01*
X139475228Y-75530288D01*
X139361229Y-75533095D01*
X139252003Y-75527775D01*
X139141567Y-75510770D01*
X139023938Y-75478521D01*
X138893133Y-75427469D01*
X138743169Y-75354056D01*
X138568064Y-75254722D01*
X138361833Y-75125909D01*
X138118495Y-74964059D01*
X137832067Y-74765611D01*
X137496564Y-74527009D01*
X137106005Y-74244691D01*
X136654406Y-73915101D01*
X136135784Y-73534679D01*
X134307639Y-72191848D01*
X136427320Y-72180017D01*
X136625043Y-72178968D01*
X137157619Y-72177119D01*
X137610612Y-72177960D01*
X137992592Y-72182481D01*
X138312133Y-72191672D01*
X138577808Y-72206524D01*
X138798188Y-72228025D01*
X138981846Y-72257167D01*
X139137355Y-72294939D01*
X139273287Y-72342332D01*
X139398216Y-72400334D01*
X139520713Y-72469938D01*
X139649351Y-72552132D01*
X139774530Y-72634755D01*
X139774530Y-68340799D01*
X139626591Y-68451715D01*
X139603187Y-68469086D01*
X139388684Y-68607961D01*
X139171844Y-68703694D01*
X138923380Y-68766559D01*
X138614002Y-68806825D01*
X138600516Y-68807931D01*
X138472904Y-68813774D01*
X138259992Y-68819050D01*
X137966645Y-68823735D01*
X137597728Y-68827807D01*
X137158106Y-68831243D01*
X136652644Y-68834019D01*
X136086208Y-68836114D01*
X135463663Y-68837504D01*
X134789873Y-68838165D01*
X134069704Y-68838076D01*
X133308021Y-68837214D01*
X132509690Y-68835554D01*
X131793586Y-68833797D01*
X131014089Y-68831917D01*
X130316672Y-68830065D01*
X129696448Y-68828011D01*
X129148530Y-68825521D01*
X128668032Y-68822364D01*
X128250069Y-68818306D01*
X127889754Y-68813115D01*
X127582202Y-68806560D01*
X127322525Y-68798407D01*
X127105839Y-68788424D01*
X126927257Y-68776379D01*
X126781892Y-68762040D01*
X126664859Y-68745174D01*
X126571272Y-68725549D01*
X126496244Y-68702932D01*
X126434889Y-68677091D01*
X126382322Y-68647794D01*
X126333657Y-68614808D01*
X126284006Y-68577902D01*
X126228484Y-68536841D01*
X126172847Y-68497127D01*
X126062839Y-68420366D01*
X125993437Y-68374387D01*
X125990530Y-68373277D01*
X125977405Y-68389331D01*
X125966454Y-68445987D01*
X125957509Y-68549549D01*
X125950401Y-68706320D01*
X125944962Y-68922606D01*
X125941024Y-69204711D01*
X125938419Y-69558938D01*
X125936979Y-69991592D01*
X125936537Y-70508978D01*
X125936537Y-72677897D01*
X126072386Y-72563588D01*
X126165690Y-72497339D01*
X126385684Y-72387064D01*
X126659295Y-72290427D01*
X126962800Y-72216670D01*
X126991613Y-72211969D01*
X127143506Y-72197982D01*
X127378254Y-72187389D01*
X127697483Y-72180164D01*
X128102817Y-72176277D01*
X128595882Y-72175701D01*
X129178303Y-72178407D01*
X131122758Y-72191848D01*
X129367072Y-73580199D01*
X129316781Y-73619964D01*
X128871074Y-73972036D01*
X128489367Y-74272612D01*
X128165170Y-74526475D01*
X127891992Y-74738408D01*
X127663344Y-74913195D01*
X127472736Y-75055619D01*
X127313676Y-75170465D01*
X127179676Y-75262515D01*
X127064244Y-75336553D01*
X126960891Y-75397362D01*
X126863126Y-75449727D01*
X126764460Y-75498430D01*
X126589811Y-75573353D01*
X126405571Y-75621753D01*
X126206844Y-75634627D01*
X125936537Y-75633334D01*
X125936537Y-80239736D01*
X123478472Y-80239736D01*
X123478472Y-74055895D01*
X123478454Y-73647661D01*
X123478336Y-72770657D01*
X123478249Y-71978410D01*
X123478369Y-71266538D01*
X123478867Y-70630659D01*
X123479918Y-70066394D01*
X123481694Y-69569361D01*
X123484369Y-69135178D01*
X123488115Y-68759466D01*
X123493106Y-68437842D01*
X123499516Y-68165927D01*
X123507517Y-67939338D01*
X123517283Y-67753694D01*
X123528986Y-67604616D01*
X123542801Y-67487721D01*
X123558900Y-67398629D01*
X123577456Y-67332958D01*
X123598643Y-67286328D01*
X123622634Y-67254358D01*
X123649602Y-67232665D01*
X123679720Y-67216871D01*
X123713162Y-67202593D01*
X123750101Y-67185450D01*
X123750704Y-67185142D01*
X123774884Y-67176819D01*
X123815373Y-67169184D01*
X123875907Y-67162209D01*
X123960224Y-67155865D01*
X124072059Y-67150122D01*
X124215149Y-67144952D01*
X124393230Y-67140325D01*
X124610040Y-67136213D01*
X124869314Y-67132586D01*
X125174789Y-67129416D01*
X125530202Y-67126674D01*
X125939289Y-67124331D01*
X126405787Y-67122357D01*
X126933432Y-67120724D01*
X127525960Y-67119403D01*
X128187109Y-67118364D01*
X128920615Y-67117580D01*
X129730213Y-67117020D01*
X130619642Y-67116656D01*
X131592637Y-67116459D01*
X132652935Y-67116400D01*
X132861232Y-67116397D01*
X133910479Y-67116296D01*
X134873163Y-67116140D01*
X135753047Y-67116049D01*
X136553895Y-67116140D01*
X137279471Y-67116531D01*
X137933540Y-67117343D01*
X138519865Y-67118693D01*
X139042211Y-67120699D01*
X139504342Y-67123480D01*
X139774530Y-67125928D01*
%TD*%
%LPC*%
D11*
%TO.C,P8*%
X164630099Y-62382399D03*
D12*
X167170099Y-62382399D03*
X164630099Y-64922399D03*
X167170099Y-64922399D03*
X164630099Y-67462399D03*
X167170099Y-67462399D03*
X164630099Y-70002399D03*
X167170099Y-70002399D03*
X164630099Y-72542399D03*
X167170099Y-72542399D03*
X164630099Y-75082399D03*
X167170099Y-75082399D03*
X164630099Y-77622399D03*
X167170099Y-77622399D03*
X164630099Y-80162399D03*
X167170099Y-80162399D03*
X164630099Y-82702399D03*
X167170099Y-82702399D03*
X164630099Y-85242399D03*
X167170099Y-85242399D03*
X164630099Y-87782399D03*
X167170099Y-87782399D03*
X164630099Y-90322399D03*
X167170099Y-90322399D03*
X164630099Y-92862399D03*
X167170099Y-92862399D03*
X164630099Y-95402399D03*
X167170099Y-95402399D03*
X164630099Y-97942399D03*
X167170099Y-97942399D03*
X164630099Y-100482399D03*
X167170099Y-100482399D03*
X164630099Y-103022399D03*
X167170099Y-103022399D03*
X164630099Y-105562399D03*
X167170099Y-105562399D03*
X164630099Y-108102399D03*
X167170099Y-108102399D03*
X164630099Y-110642399D03*
X167170099Y-110642399D03*
X164630099Y-113182399D03*
X167170099Y-113182399D03*
X164630099Y-115722399D03*
X167170099Y-115722399D03*
X164630099Y-118262399D03*
X167170099Y-118262399D03*
%TD*%
D11*
%TO.C,P9*%
X116370099Y-62382399D03*
D12*
X118910099Y-62382399D03*
X116370099Y-64922399D03*
X118910099Y-64922399D03*
X116370099Y-67462399D03*
X118910099Y-67462399D03*
X116370099Y-70002399D03*
X118910099Y-70002399D03*
X116370099Y-72542399D03*
X118910099Y-72542399D03*
X116370099Y-75082399D03*
X118910099Y-75082399D03*
X116370099Y-77622399D03*
X118910099Y-77622399D03*
X116370099Y-80162399D03*
X118910099Y-80162399D03*
X116370099Y-82702399D03*
X118910099Y-82702399D03*
X116370099Y-85242399D03*
X118910099Y-85242399D03*
X116370099Y-87782399D03*
X118910099Y-87782399D03*
X116370099Y-90322399D03*
X118910099Y-90322399D03*
X116370099Y-92862399D03*
X118910099Y-92862399D03*
X116370099Y-95402399D03*
X118910099Y-95402399D03*
X116370099Y-97942399D03*
X118910099Y-97942399D03*
X116370099Y-100482399D03*
X118910099Y-100482399D03*
X116370099Y-103022399D03*
X118910099Y-103022399D03*
X116370099Y-105562399D03*
X118910099Y-105562399D03*
X116370099Y-108102399D03*
X118910099Y-108102399D03*
X116370099Y-110642399D03*
X118910099Y-110642399D03*
X116370099Y-113182399D03*
X118910099Y-113182399D03*
X116370099Y-115722399D03*
X118910099Y-115722399D03*
X116370099Y-118262399D03*
X118910099Y-118262399D03*
%TD*%
D13*
%TO.C,J2*%
X146714791Y-120512328D03*
X158144791Y-120512328D03*
D14*
X147984790Y-114162327D03*
D15*
X149254791Y-111622328D03*
X150524791Y-114162328D03*
X151794791Y-111622328D03*
X153064791Y-114162328D03*
X154334791Y-111622328D03*
X155604791Y-114162328D03*
X156874791Y-111622328D03*
D16*
X144659791Y-123562328D03*
X160199791Y-123562328D03*
%TD*%
D17*
%TO.C,J7*%
X163985099Y-54162399D03*
D18*
X161445099Y-54162399D03*
X158905099Y-54162399D03*
%TD*%
D17*
%TO.C,J1*%
X151920099Y-103057399D03*
D18*
X154460099Y-103057399D03*
X157000099Y-103057399D03*
%TD*%
D13*
%TO.C,J4*%
X126543541Y-120562003D03*
X137973541Y-120562003D03*
D14*
X127813540Y-114212002D03*
D15*
X129083541Y-111672003D03*
X130353541Y-114212003D03*
X131623541Y-111672003D03*
X132893541Y-114212003D03*
X134163541Y-111672003D03*
X135433541Y-114212003D03*
X136703541Y-111672003D03*
D16*
X124488541Y-123612003D03*
X140028541Y-123612003D03*
%TD*%
D19*
%TO.C,Sw1*%
X111355100Y-70382400D03*
X104855100Y-70382400D03*
X111355100Y-65882400D03*
X104855100Y-65882400D03*
%TD*%
D17*
%TO.C,J5*%
X110660099Y-50352399D03*
D18*
X113200099Y-50352399D03*
X115740099Y-50352399D03*
%TD*%
D17*
%TO.C,J6*%
X124615099Y-50352399D03*
D18*
X127155099Y-50352399D03*
X129695099Y-50352399D03*
%TD*%
D19*
%TO.C,Sw3*%
X104930100Y-96707400D03*
X111430100Y-96707400D03*
X104930100Y-101207400D03*
X111430100Y-101207400D03*
%TD*%
D17*
%TO.C,J3*%
X129060099Y-103057399D03*
D18*
X131600099Y-103057399D03*
X134140099Y-103057399D03*
%TD*%
D19*
%TO.C,Sw2*%
X104845109Y-75417299D03*
X111345109Y-75417299D03*
X104845109Y-79917299D03*
X111345109Y-79917299D03*
%TD*%
%TO.C,Sw4*%
X111430100Y-109462400D03*
X104930100Y-109462400D03*
X111430100Y-104962400D03*
X104930100Y-104962400D03*
%TD*%
M02*
