M48
; DRILL file {KiCad (7.0.0)} date Sun Feb 19 15:54:43 2023
; FORMAT={-:-/ absolute / inch / decimal}
; #@! TF.CreationDate,2023-02-19T15:54:43+01:00
; #@! TF.GenerationSoftware,Kicad,Pcbnew,(7.0.0)
; #@! TF.FileFunction,Plated,1,2,PTH
FMAT,2
INCH
; #@! TA.AperFunction,Plated,PTH,ViaDrill
T1C0.0157
; #@! TA.AperFunction,Plated,PTH,ComponentDrill
T2C0.0354
; #@! TA.AperFunction,Plated,PTH,ComponentDrill
T3C0.0394
; #@! TA.AperFunction,Plated,PTH,ComponentDrill
T4C0.0400
; #@! TA.AperFunction,Plated,PTH,ComponentDrill
T5C0.0433
; #@! TA.AperFunction,Plated,PTH,ComponentDrill
T6C0.0630
%
G90
G05
T1
X4.0911Y-3.6824
X4.1061Y-2.5074
X4.1061Y-2.8574
X4.1061Y-3.2324
X4.1061Y-4.4074
X4.1311Y-3.6824
X4.1561Y-2.5074
X4.1561Y-2.8574
X4.1561Y-4.4074
X4.2511Y-1.9224
X4.2511Y-1.9824
X4.2511Y-2.0424
X4.2911Y-3.2424
X4.2911Y-3.6224
X4.2911Y-4.5224
X4.3561Y-3.2324
X4.4061Y-3.2324
X4.5311Y-2.3624
X4.6111Y-2.3624
X4.6911Y-2.3624
X4.7311Y-3.6102
X4.7437Y-3.5399
X4.7441Y-3.5076
X4.7697Y-3.1074
X4.7707Y-3.1417
X4.7711Y-3.2624
X4.7714Y-3.0667
X4.7717Y-3.2067
X4.779Y-2.9245
X4.7911Y-1.9224
X4.7911Y-1.9824
X4.7911Y-2.0424
X4.8149Y-3.2497
X4.8163Y-3.1732
X4.8177Y-3.3925
X4.8177Y-3.4301
X4.8311Y-4.7424
X4.8511Y-3.1675
X4.8561Y-2.8824
X4.8807Y-3.8224
X4.8911Y-4.0224
X4.8911Y-4.0719
X4.9059Y-2.5727
X4.9061Y-3.2074
X4.9162Y-3.5022
X4.9311Y-3.9424
X4.932Y-4.0224
X4.9442Y-3.2324
X4.9689Y-3.2677
X4.9953Y-3.1824
X5.0061Y-3.044
X5.0111Y-3.7824
X5.0111Y-3.8224
X5.0438Y-3.18
X5.045Y-3.044
X5.0455Y-2.8255
X5.0457Y-3.0027
X5.047Y-2.8744
X5.083Y-3.0445
X5.1061Y-2.6324
X5.1061Y-2.6824
X5.1111Y-3.9224
X5.1515Y-3.8733
X5.1547Y-3.3422
X5.1553Y-3.3138
X5.1561Y-2.6324
X5.1561Y-2.6824
X5.1806Y-2.9441
X5.1809Y-2.9073
X5.2061Y-3.1824
X5.2096Y-3.8752
X5.2353Y-3.4169
X5.2561Y-3.1824
X5.2638Y-3.4287
X5.2647Y-3.7035
X5.2647Y-3.7424
X5.2711Y-3.3923
X5.3038Y-3.5356
X5.3061Y-3.1824
X5.3326Y-3.5577
X5.3613Y-3.042
X5.3811Y-3.5074
X5.3913Y-3.0067
X5.4038Y-3.054
X5.4061Y-3.2786
X5.4065Y-3.3109
X5.4311Y-3.1824
X5.4511Y-3.5424
X5.4511Y-3.5824
X5.4721Y-2.878
X5.4911Y-3.9224
X5.5061Y-3.4824
X5.5061Y-3.6074
X5.5061Y-3.6574
X5.5068Y-3.1716
X5.5248Y-3.2574
X5.526Y-2.877
X5.5495Y-3.2071
X5.5506Y-3.1715
X5.5561Y-3.4824
X5.5754Y-2.8771
X5.5957Y-3.1717
X5.5967Y-3.2136
X5.6061Y-3.4824
X5.6293Y-2.8761
X5.6567Y-3.0178
X5.6711Y-3.2624
X5.7049Y-3.5725
X5.7054Y-3.5211
X5.7061Y-3.0178
X5.7061Y-3.4824
X5.7599Y-3.3259
X5.8324Y-3.4236
X5.8811Y-2.6074
X5.8811Y-2.6574
X5.8969Y-3.3717
X5.9005Y-3.4924
X5.9311Y-3.3893
X5.9311Y-2.6074
X5.9311Y-2.6574
X5.9511Y-3.4924
X5.9682Y-3.4032
X6.0111Y-3.4924
X6.0311Y-2.8074
X6.0311Y-2.8574
X6.0561Y-2.6629
X6.0756Y-3.2313
X6.1061Y-2.7824
X6.1311Y-2.9324
X6.1476Y-3.4579
X6.1511Y-3.7424
X6.1811Y-2.7324
X6.2111Y-3.7424
X6.2311Y-3.4074
X6.2561Y-2.7574
X6.2765Y-3.237
X6.2911Y-3.4024
X6.3111Y-3.6024
X6.3111Y-3.7224
X6.3511Y-2.9824
X6.3511Y-3.0224
X6.3511Y-3.1024
X6.3511Y-3.4024
X6.3511Y-3.6024
X6.3511Y-3.7224
X6.3911Y-2.6024
X6.3911Y-2.6624
X6.3911Y-2.7224
X6.5111Y-2.3624
X6.5511Y-2.0824
X6.5511Y-2.1424
X6.5511Y-2.2024
X6.5911Y-2.3624
T2
X5.032Y-4.4965
X5.082Y-4.3965
X5.132Y-4.4965
X5.182Y-4.3965
X5.232Y-4.4965
X5.282Y-4.3965
X5.332Y-4.4965
X5.382Y-4.3965
X5.8262Y-4.4946
X5.8762Y-4.3946
X5.9262Y-4.4946
X5.9762Y-4.3946
X6.0262Y-4.4946
X6.0762Y-4.3946
X6.1262Y-4.4946
X6.1762Y-4.3946
T3
X4.3567Y-1.9824
X4.4567Y-1.9824
X4.5567Y-1.9824
X4.9061Y-1.9824
X5.0061Y-1.9824
X5.0811Y-4.0574
X5.1061Y-1.9824
X5.1811Y-4.0574
X5.2811Y-4.0574
X5.9811Y-4.0574
X6.0811Y-4.0574
X6.1811Y-4.0574
X6.2561Y-2.1324
X6.3561Y-2.1324
X6.4561Y-2.1324
T4
X4.5815Y-2.456
X4.5815Y-2.556
X4.5815Y-2.656
X4.5815Y-2.756
X4.5815Y-2.856
X4.5815Y-2.956
X4.5815Y-3.056
X4.5815Y-3.156
X4.5815Y-3.256
X4.5815Y-3.356
X4.5815Y-3.456
X4.5815Y-3.556
X4.5815Y-3.656
X4.5815Y-3.756
X4.5815Y-3.856
X4.5815Y-3.956
X4.5815Y-4.056
X4.5815Y-4.156
X4.5815Y-4.256
X4.5815Y-4.356
X4.5815Y-4.456
X4.5815Y-4.556
X4.5815Y-4.656
X4.6815Y-2.456
X4.6815Y-2.556
X4.6815Y-2.656
X4.6815Y-2.756
X4.6815Y-2.856
X4.6815Y-2.956
X4.6815Y-3.056
X4.6815Y-3.156
X4.6815Y-3.256
X4.6815Y-3.356
X4.6815Y-3.456
X4.6815Y-3.556
X4.6815Y-3.656
X4.6815Y-3.756
X4.6815Y-3.856
X4.6815Y-3.956
X4.6815Y-4.056
X4.6815Y-4.156
X4.6815Y-4.256
X4.6815Y-4.356
X4.6815Y-4.456
X4.6815Y-4.556
X4.6815Y-4.656
X6.4815Y-2.456
X6.4815Y-2.556
X6.4815Y-2.656
X6.4815Y-2.756
X6.4815Y-2.856
X6.4815Y-2.956
X6.4815Y-3.056
X6.4815Y-3.156
X6.4815Y-3.256
X6.4815Y-3.356
X6.4815Y-3.456
X6.4815Y-3.556
X6.4815Y-3.656
X6.4815Y-3.756
X6.4815Y-3.856
X6.4815Y-3.956
X6.4815Y-4.056
X6.4815Y-4.156
X6.4815Y-4.256
X6.4815Y-4.356
X6.4815Y-4.456
X6.4815Y-4.556
X6.4815Y-4.656
X6.5815Y-2.456
X6.5815Y-2.556
X6.5815Y-2.656
X6.5815Y-2.756
X6.5815Y-2.856
X6.5815Y-2.956
X6.5815Y-3.056
X6.5815Y-3.156
X6.5815Y-3.256
X6.5815Y-3.356
X6.5815Y-3.456
X6.5815Y-3.556
X6.5815Y-3.656
X6.5815Y-3.756
X6.5815Y-3.856
X6.5815Y-3.956
X6.5815Y-4.056
X6.5815Y-4.156
X6.5815Y-4.256
X6.5815Y-4.356
X6.5815Y-4.456
X6.5815Y-4.556
X6.5815Y-4.656
T5
X4.1278Y-2.9692
X4.1278Y-3.1464
X4.1282Y-2.5938
X4.1282Y-2.771
X4.1311Y-3.8074
X4.1311Y-3.9845
X4.1311Y-4.1324
X4.1311Y-4.3095
X4.3837Y-2.9692
X4.3837Y-3.1464
X4.3841Y-2.5938
X4.3841Y-2.771
X4.387Y-3.8074
X4.387Y-3.9845
X4.387Y-4.1324
X4.387Y-4.3095
T6
X4.9011Y-4.8666
X5.5129Y-4.8666
X5.6953Y-4.8647
X6.3071Y-4.8647
T0
M30
