%TF.GenerationSoftware,KiCad,Pcbnew,(7.0.0)*%
%TF.CreationDate,2023-02-19T15:54:43+01:00*%
%TF.ProjectId,bbb-can-bus-cape,6262622d-6361-46e2-9d62-75732d636170,rev?*%
%TF.SameCoordinates,Original*%
%TF.FileFunction,Soldermask,Top*%
%TF.FilePolarity,Negative*%
%FSLAX46Y46*%
G04 Gerber Fmt 4.6, Leading zero omitted, Abs format (unit mm)*
G04 Created by KiCad (PCBNEW (7.0.0)) date 2023-02-19 15:54:43*
%MOMM*%
%LPD*%
G01*
G04 APERTURE LIST*
G04 Aperture macros list*
%AMRoundRect*
0 Rectangle with rounded corners*
0 $1 Rounding radius*
0 $2 $3 $4 $5 $6 $7 $8 $9 X,Y pos of 4 corners*
0 Add a 4 corners polygon primitive as box body*
4,1,4,$2,$3,$4,$5,$6,$7,$8,$9,$2,$3,0*
0 Add four circle primitives for the rounded corners*
1,1,$1+$1,$2,$3*
1,1,$1+$1,$4,$5*
1,1,$1+$1,$6,$7*
1,1,$1+$1,$8,$9*
0 Add four rect primitives between the rounded corners*
20,1,$1+$1,$2,$3,$4,$5,0*
20,1,$1+$1,$4,$5,$6,$7,0*
20,1,$1+$1,$6,$7,$8,$9,0*
20,1,$1+$1,$8,$9,$2,$3,0*%
%AMFreePoly0*
4,1,6,1.000000,0.000000,0.500000,-0.750000,-0.500000,-0.750000,-0.500000,0.750000,0.500000,0.750000,1.000000,0.000000,1.000000,0.000000,$1*%
%AMFreePoly1*
4,1,6,0.500000,-0.750000,-0.650000,-0.750000,-0.150000,0.000000,-0.650000,0.750000,0.500000,0.750000,0.500000,-0.750000,0.500000,-0.750000,$1*%
G04 Aperture macros list end*
%ADD10R,1.727200X1.727200*%
%ADD11O,1.727200X1.727200*%
%ADD12C,3.250000*%
%ADD13R,1.500000X1.500000*%
%ADD14C,1.500000*%
%ADD15C,3.000000*%
%ADD16RoundRect,0.140000X-0.170000X0.140000X-0.170000X-0.140000X0.170000X-0.140000X0.170000X0.140000X0*%
%ADD17R,1.000000X0.600000*%
%ADD18RoundRect,0.250000X0.625000X-0.312500X0.625000X0.312500X-0.625000X0.312500X-0.625000X-0.312500X0*%
%ADD19RoundRect,0.225000X0.225000X0.250000X-0.225000X0.250000X-0.225000X-0.250000X0.225000X-0.250000X0*%
%ADD20R,1.000000X1.500000*%
%ADD21R,1.500000X1.000000*%
%ADD22RoundRect,0.100000X-0.100000X0.637500X-0.100000X-0.637500X0.100000X-0.637500X0.100000X0.637500X0*%
%ADD23RoundRect,0.250000X-0.450000X0.262500X-0.450000X-0.262500X0.450000X-0.262500X0.450000X0.262500X0*%
%ADD24RoundRect,0.225000X-0.250000X0.225000X-0.250000X-0.225000X0.250000X-0.225000X0.250000X0.225000X0*%
%ADD25RoundRect,0.200000X0.200000X0.275000X-0.200000X0.275000X-0.200000X-0.275000X0.200000X-0.275000X0*%
%ADD26R,1.700000X1.700000*%
%ADD27O,1.700000X1.700000*%
%ADD28RoundRect,0.250000X-0.375000X-0.625000X0.375000X-0.625000X0.375000X0.625000X-0.375000X0.625000X0*%
%ADD29RoundRect,0.200000X-0.200000X-0.275000X0.200000X-0.275000X0.200000X0.275000X-0.200000X0.275000X0*%
%ADD30RoundRect,0.200000X-0.275000X0.200000X-0.275000X-0.200000X0.275000X-0.200000X0.275000X0.200000X0*%
%ADD31FreePoly0,270.000000*%
%ADD32FreePoly1,270.000000*%
%ADD33RoundRect,0.100000X0.100000X-0.712500X0.100000X0.712500X-0.100000X0.712500X-0.100000X-0.712500X0*%
%ADD34RoundRect,0.250000X0.625000X-0.375000X0.625000X0.375000X-0.625000X0.375000X-0.625000X-0.375000X0*%
%ADD35RoundRect,0.200000X0.275000X-0.200000X0.275000X0.200000X-0.275000X0.200000X-0.275000X-0.200000X0*%
%ADD36RoundRect,0.150000X-0.825000X-0.150000X0.825000X-0.150000X0.825000X0.150000X-0.825000X0.150000X0*%
%ADD37RoundRect,0.225000X0.250000X-0.225000X0.250000X0.225000X-0.250000X0.225000X-0.250000X-0.225000X0*%
%ADD38RoundRect,0.250000X-0.262500X-0.450000X0.262500X-0.450000X0.262500X0.450000X-0.262500X0.450000X0*%
%ADD39RoundRect,0.243750X-0.243750X-0.456250X0.243750X-0.456250X0.243750X0.456250X-0.243750X0.456250X0*%
%ADD40R,0.600000X1.000000*%
%ADD41RoundRect,0.225000X-0.225000X-0.250000X0.225000X-0.250000X0.225000X0.250000X-0.225000X0.250000X0*%
%ADD42RoundRect,0.250000X-0.625000X0.375000X-0.625000X-0.375000X0.625000X-0.375000X0.625000X0.375000X0*%
%ADD43RoundRect,0.150000X0.150000X-0.825000X0.150000X0.825000X-0.150000X0.825000X-0.150000X-0.825000X0*%
%ADD44RoundRect,0.140000X0.170000X-0.140000X0.170000X0.140000X-0.170000X0.140000X-0.170000X-0.140000X0*%
%ADD45C,2.000000*%
%ADD46R,1.400000X1.200000*%
%ADD47RoundRect,0.250000X0.262500X0.450000X-0.262500X0.450000X-0.262500X-0.450000X0.262500X-0.450000X0*%
%ADD48R,0.800000X0.900000*%
G04 APERTURE END LIST*
D10*
%TO.C,P8*%
X164630099Y-62382399D03*
D11*
X167170099Y-62382399D03*
X164630099Y-64922399D03*
X167170099Y-64922399D03*
X164630099Y-67462399D03*
X167170099Y-67462399D03*
X164630099Y-70002399D03*
X167170099Y-70002399D03*
X164630099Y-72542399D03*
X167170099Y-72542399D03*
X164630099Y-75082399D03*
X167170099Y-75082399D03*
X164630099Y-77622399D03*
X167170099Y-77622399D03*
X164630099Y-80162399D03*
X167170099Y-80162399D03*
X164630099Y-82702399D03*
X167170099Y-82702399D03*
X164630099Y-85242399D03*
X167170099Y-85242399D03*
X164630099Y-87782399D03*
X167170099Y-87782399D03*
X164630099Y-90322399D03*
X167170099Y-90322399D03*
X164630099Y-92862399D03*
X167170099Y-92862399D03*
X164630099Y-95402399D03*
X167170099Y-95402399D03*
X164630099Y-97942399D03*
X167170099Y-97942399D03*
X164630099Y-100482399D03*
X167170099Y-100482399D03*
X164630099Y-103022399D03*
X167170099Y-103022399D03*
X164630099Y-105562399D03*
X167170099Y-105562399D03*
X164630099Y-108102399D03*
X167170099Y-108102399D03*
X164630099Y-110642399D03*
X167170099Y-110642399D03*
X164630099Y-113182399D03*
X167170099Y-113182399D03*
X164630099Y-115722399D03*
X167170099Y-115722399D03*
X164630099Y-118262399D03*
X167170099Y-118262399D03*
%TD*%
D10*
%TO.C,P9*%
X116370099Y-62382399D03*
D11*
X118910099Y-62382399D03*
X116370099Y-64922399D03*
X118910099Y-64922399D03*
X116370099Y-67462399D03*
X118910099Y-67462399D03*
X116370099Y-70002399D03*
X118910099Y-70002399D03*
X116370099Y-72542399D03*
X118910099Y-72542399D03*
X116370099Y-75082399D03*
X118910099Y-75082399D03*
X116370099Y-77622399D03*
X118910099Y-77622399D03*
X116370099Y-80162399D03*
X118910099Y-80162399D03*
X116370099Y-82702399D03*
X118910099Y-82702399D03*
X116370099Y-85242399D03*
X118910099Y-85242399D03*
X116370099Y-87782399D03*
X118910099Y-87782399D03*
X116370099Y-90322399D03*
X118910099Y-90322399D03*
X116370099Y-92862399D03*
X118910099Y-92862399D03*
X116370099Y-95402399D03*
X118910099Y-95402399D03*
X116370099Y-97942399D03*
X118910099Y-97942399D03*
X116370099Y-100482399D03*
X118910099Y-100482399D03*
X116370099Y-103022399D03*
X118910099Y-103022399D03*
X116370099Y-105562399D03*
X118910099Y-105562399D03*
X116370099Y-108102399D03*
X118910099Y-108102399D03*
X116370099Y-110642399D03*
X118910099Y-110642399D03*
X116370099Y-113182399D03*
X118910099Y-113182399D03*
X116370099Y-115722399D03*
X118910099Y-115722399D03*
X116370099Y-118262399D03*
X118910099Y-118262399D03*
%TD*%
D12*
%TO.C,J2*%
X146714791Y-120512328D03*
X158144791Y-120512328D03*
D13*
X147984790Y-114162327D03*
D14*
X149254791Y-111622328D03*
X150524791Y-114162328D03*
X151794791Y-111622328D03*
X153064791Y-114162328D03*
X154334791Y-111622328D03*
X155604791Y-114162328D03*
X156874791Y-111622328D03*
D15*
X144659791Y-123562328D03*
X160199791Y-123562328D03*
%TD*%
D16*
%TO.C,C15*%
X143205946Y-74584367D03*
X143205946Y-75544367D03*
%TD*%
D17*
%TO.C,D1*%
X159025099Y-91947399D03*
X159025099Y-93847399D03*
X161325099Y-92897399D03*
%TD*%
D18*
%TO.C,R21*%
X155095100Y-65149900D03*
X155095100Y-62224900D03*
%TD*%
D19*
%TO.C,C1*%
X143805100Y-96707400D03*
X142255100Y-96707400D03*
%TD*%
D20*
%TO.C,P3*%
X151155099Y-91627399D03*
X149855099Y-91627399D03*
%TD*%
D21*
%TO.C,P14*%
X151920099Y-75767399D03*
X151920099Y-74467399D03*
%TD*%
D17*
%TO.C,D4*%
X134655099Y-68873542D03*
X134655099Y-66973542D03*
X132355099Y-67923542D03*
%TD*%
D21*
%TO.C,P5*%
X129994015Y-90718233D03*
X129994015Y-92018233D03*
%TD*%
D22*
%TO.C,U1*%
X128175100Y-78844899D03*
X127525100Y-78844899D03*
X126875100Y-78844899D03*
X126225100Y-78844899D03*
X125575100Y-78844899D03*
X124925100Y-78844899D03*
X124275100Y-78844899D03*
X123625100Y-78844899D03*
X122975100Y-78844899D03*
X122325100Y-78844899D03*
X122325100Y-84569899D03*
X122975100Y-84569899D03*
X123625100Y-84569899D03*
X124275100Y-84569899D03*
X124925100Y-84569899D03*
X125575100Y-84569899D03*
X126225100Y-84569899D03*
X126875100Y-84569899D03*
X127525100Y-84569899D03*
X128175100Y-84569899D03*
%TD*%
D23*
%TO.C,R3*%
X132616682Y-90413817D03*
X132616682Y-92238817D03*
%TD*%
D16*
%TO.C,C6*%
X126700132Y-75282169D03*
X126700132Y-76242169D03*
%TD*%
D24*
%TO.C,C11*%
X155730100Y-79562400D03*
X155730100Y-81112400D03*
%TD*%
D25*
%TO.C,R13*%
X111269692Y-88265214D03*
X109619692Y-88265214D03*
%TD*%
D26*
%TO.C,J7*%
X163985099Y-54162399D03*
D27*
X161445099Y-54162399D03*
X158905099Y-54162399D03*
%TD*%
D19*
%TO.C,C8*%
X125369165Y-86547400D03*
X123819165Y-86547400D03*
%TD*%
D18*
%TO.C,R20*%
X157635100Y-65149900D03*
X157635100Y-62224900D03*
%TD*%
D24*
%TO.C,C2*%
X157000100Y-92122400D03*
X157000100Y-93672400D03*
%TD*%
D26*
%TO.C,J1*%
X151920099Y-103057399D03*
D27*
X154460099Y-103057399D03*
X157000099Y-103057399D03*
%TD*%
D28*
%TO.C,F1*%
X146075100Y-96975356D03*
X148875100Y-96975356D03*
%TD*%
D29*
%TO.C,R19*%
X154270100Y-89087400D03*
X155920100Y-89087400D03*
%TD*%
%TO.C,R17*%
X154270100Y-85277400D03*
X155920100Y-85277400D03*
%TD*%
D30*
%TO.C,R18*%
X155704880Y-76209955D03*
X155704880Y-77859955D03*
%TD*%
D19*
%TO.C,C3*%
X123164110Y-89249290D03*
X121614110Y-89249290D03*
%TD*%
D31*
%TO.C,JP2*%
X139855100Y-102332400D03*
D32*
X139855100Y-103782400D03*
%TD*%
D33*
%TO.C,U6*%
X157464047Y-79769900D03*
X158114047Y-79769900D03*
X158764047Y-79769900D03*
X159414047Y-79769900D03*
X159414047Y-75544900D03*
X158764047Y-75544900D03*
X158114047Y-75544900D03*
X157464047Y-75544900D03*
%TD*%
D29*
%TO.C,R5*%
X126944165Y-86547400D03*
X128594165Y-86547400D03*
%TD*%
D34*
%TO.C,F10*%
X132870100Y-63687400D03*
X132870100Y-60887400D03*
%TD*%
D29*
%TO.C,R6*%
X141505902Y-86841872D03*
X143155902Y-86841872D03*
%TD*%
D22*
%TO.C,U2*%
X144852925Y-78558047D03*
X144202925Y-78558047D03*
X143552925Y-78558047D03*
X142902925Y-78558047D03*
X142252925Y-78558047D03*
X141602925Y-78558047D03*
X140952925Y-78558047D03*
X140302925Y-78558047D03*
X139652925Y-78558047D03*
X139002925Y-78558047D03*
X139002925Y-84283047D03*
X139652925Y-84283047D03*
X140302925Y-84283047D03*
X140952925Y-84283047D03*
X141602925Y-84283047D03*
X142252925Y-84283047D03*
X142902925Y-84283047D03*
X143552925Y-84283047D03*
X144202925Y-84283047D03*
X144852925Y-84283047D03*
%TD*%
D35*
%TO.C,R11*%
X122710100Y-101977400D03*
X122710100Y-100327400D03*
%TD*%
D36*
%TO.C,U4*%
X122140100Y-90992400D03*
X122140100Y-92262400D03*
X122140100Y-93532400D03*
X122140100Y-94802400D03*
X127090100Y-94802400D03*
X127090100Y-93532400D03*
X127090100Y-92262400D03*
X127090100Y-90992400D03*
%TD*%
D37*
%TO.C,C13*%
X152555100Y-67637400D03*
X152555100Y-66087400D03*
%TD*%
D34*
%TO.C,F6*%
X125885100Y-63687400D03*
X125885100Y-60887400D03*
%TD*%
D38*
%TO.C,R1*%
X153140100Y-91627400D03*
X154965100Y-91627400D03*
%TD*%
D21*
%TO.C,P11*%
X135040366Y-75786733D03*
X135040366Y-74486733D03*
%TD*%
D38*
%TO.C,R9*%
X130378842Y-71942400D03*
X132203842Y-71942400D03*
%TD*%
D21*
%TO.C,P6*%
X130003724Y-94106823D03*
X130003724Y-95406823D03*
%TD*%
D29*
%TO.C,R16*%
X110532110Y-72931603D03*
X112182110Y-72931603D03*
%TD*%
D39*
%TO.C,D6*%
X105897600Y-87817400D03*
X107772600Y-87817400D03*
%TD*%
D40*
%TO.C,D2*%
X136115122Y-92777399D03*
X138015122Y-92777399D03*
X137065122Y-90477399D03*
%TD*%
D41*
%TO.C,C14*%
X144730902Y-86841872D03*
X146280902Y-86841872D03*
%TD*%
D38*
%TO.C,R23*%
X150015100Y-71942400D03*
X151840100Y-71942400D03*
%TD*%
D42*
%TO.C,F3*%
X135358698Y-94672400D03*
X135358698Y-97472400D03*
%TD*%
D43*
%TO.C,U7*%
X132235100Y-83942400D03*
X133505100Y-83942400D03*
X134775100Y-83942400D03*
X136045100Y-83942400D03*
X136045100Y-78992400D03*
X134775100Y-78992400D03*
X133505100Y-78992400D03*
X132235100Y-78992400D03*
%TD*%
D40*
%TO.C,D3*%
X123665099Y-69162399D03*
X125565099Y-69162399D03*
X124615099Y-66862399D03*
%TD*%
D20*
%TO.C,P4*%
X149855099Y-94167399D03*
X151155099Y-94167399D03*
%TD*%
D41*
%TO.C,C17*%
X154320100Y-83372400D03*
X155870100Y-83372400D03*
%TD*%
D31*
%TO.C,JP1*%
X145570100Y-102332400D03*
D32*
X145570100Y-103782400D03*
%TD*%
D12*
%TO.C,J4*%
X126543541Y-120562003D03*
X137973541Y-120562003D03*
D13*
X127813540Y-114212002D03*
D14*
X129083541Y-111672003D03*
X130353541Y-114212003D03*
X131623541Y-111672003D03*
X132893541Y-114212003D03*
X134163541Y-111672003D03*
X135433541Y-114212003D03*
X136703541Y-111672003D03*
D15*
X124488541Y-123612003D03*
X140028541Y-123612003D03*
%TD*%
D44*
%TO.C,C7*%
X121300074Y-76234726D03*
X121300074Y-75274726D03*
%TD*%
D36*
%TO.C,U3*%
X141825100Y-90992400D03*
X141825100Y-92262400D03*
X141825100Y-93532400D03*
X141825100Y-94802400D03*
X146775100Y-94802400D03*
X146775100Y-93532400D03*
X146775100Y-92262400D03*
X146775100Y-90992400D03*
%TD*%
D41*
%TO.C,C18*%
X149396594Y-70037400D03*
X150946594Y-70037400D03*
%TD*%
D24*
%TO.C,C10*%
X132870100Y-74202400D03*
X132870100Y-75752400D03*
%TD*%
D29*
%TO.C,R24*%
X146777100Y-89087400D03*
X148427100Y-89087400D03*
%TD*%
D45*
%TO.C,Sw1*%
X111355100Y-70382400D03*
X104855100Y-70382400D03*
X111355100Y-65882400D03*
X104855100Y-65882400D03*
%TD*%
D26*
%TO.C,J5*%
X110660099Y-50352399D03*
D27*
X113200099Y-50352399D03*
X115740099Y-50352399D03*
%TD*%
D25*
%TO.C,R14*%
X111167600Y-85277400D03*
X109517600Y-85277400D03*
%TD*%
D26*
%TO.C,J6*%
X124615099Y-50352399D03*
D27*
X127155099Y-50352399D03*
X129695099Y-50352399D03*
%TD*%
D34*
%TO.C,F7*%
X160237544Y-62462302D03*
X160237544Y-59662302D03*
%TD*%
D39*
%TO.C,D8*%
X105897600Y-90357400D03*
X107772600Y-90357400D03*
%TD*%
D37*
%TO.C,C12*%
X161532821Y-81863122D03*
X161532821Y-80313122D03*
%TD*%
D29*
%TO.C,R28*%
X107355100Y-93877400D03*
X109005100Y-93877400D03*
%TD*%
%TO.C,R29*%
X107355100Y-112292400D03*
X109005100Y-112292400D03*
%TD*%
D35*
%TO.C,R7*%
X146840100Y-79562400D03*
X146840100Y-77912400D03*
%TD*%
D45*
%TO.C,Sw3*%
X104930100Y-96707400D03*
X111430100Y-96707400D03*
X104930100Y-101207400D03*
X111430100Y-101207400D03*
%TD*%
D21*
%TO.C,P13*%
X148745099Y-74467399D03*
X148745099Y-75767399D03*
%TD*%
D26*
%TO.C,J3*%
X129060099Y-103057399D03*
D27*
X131600099Y-103057399D03*
X134140099Y-103057399D03*
%TD*%
D28*
%TO.C,F8*%
X154965100Y-59877400D03*
X157765100Y-59877400D03*
%TD*%
%TO.C,F2*%
X151155100Y-96992103D03*
X153955100Y-96992103D03*
%TD*%
D43*
%TO.C,U8*%
X148745100Y-83777400D03*
X150015100Y-83777400D03*
X151285100Y-83777400D03*
X152555100Y-83777400D03*
X152555100Y-78827400D03*
X151285100Y-78827400D03*
X150015100Y-78827400D03*
X148745100Y-78827400D03*
%TD*%
D46*
%TO.C,Y1*%
X122880099Y-76602399D03*
X125080099Y-76602399D03*
X125080099Y-74902399D03*
X122880099Y-74902399D03*
%TD*%
D43*
%TO.C,U9*%
X155095100Y-72512400D03*
X156365100Y-72512400D03*
X157635100Y-72512400D03*
X158905100Y-72512400D03*
X158905100Y-67562400D03*
X157635100Y-67562400D03*
X156365100Y-67562400D03*
X155095100Y-67562400D03*
%TD*%
D29*
%TO.C,R31*%
X110530100Y-112292400D03*
X112180100Y-112292400D03*
%TD*%
D38*
%TO.C,R10*%
X134497600Y-71943931D03*
X136322600Y-71943931D03*
%TD*%
D45*
%TO.C,Sw2*%
X104845109Y-75417299D03*
X111345109Y-75417299D03*
X104845109Y-79917299D03*
X111345109Y-79917299D03*
%TD*%
D39*
%TO.C,D7*%
X105897600Y-85277400D03*
X107772600Y-85277400D03*
%TD*%
D30*
%TO.C,NTC1*%
X122710100Y-103692400D03*
X122710100Y-105342400D03*
%TD*%
D43*
%TO.C,U5*%
X157635100Y-89022400D03*
X158905100Y-89022400D03*
X160175100Y-89022400D03*
X161445100Y-89022400D03*
X161445100Y-84072400D03*
X160175100Y-84072400D03*
X158905100Y-84072400D03*
X157635100Y-84072400D03*
%TD*%
D25*
%TO.C,R15*%
X111280100Y-90357400D03*
X109630100Y-90357400D03*
%TD*%
D35*
%TO.C,R8*%
X130423024Y-79342511D03*
X130423024Y-77692511D03*
%TD*%
D47*
%TO.C,R2*%
X154965100Y-94167400D03*
X153140100Y-94167400D03*
%TD*%
D45*
%TO.C,Sw4*%
X111430100Y-109462400D03*
X104930100Y-109462400D03*
X111430100Y-104962400D03*
X104930100Y-104962400D03*
%TD*%
D42*
%TO.C,F4*%
X137950100Y-94672400D03*
X137950100Y-97472400D03*
%TD*%
D19*
%TO.C,C9*%
X139930902Y-86836145D03*
X138380902Y-86836145D03*
%TD*%
D37*
%TO.C,C19*%
X129695100Y-84782400D03*
X129695100Y-83232400D03*
%TD*%
D23*
%TO.C,R4*%
X132362100Y-93860291D03*
X132362100Y-95685291D03*
%TD*%
D41*
%TO.C,C5*%
X130069641Y-86757479D03*
X131619641Y-86757479D03*
%TD*%
D34*
%TO.C,F9*%
X130330100Y-63687400D03*
X130330100Y-60887400D03*
%TD*%
%TO.C,F5*%
X123345100Y-63687400D03*
X123345100Y-60887400D03*
%TD*%
D29*
%TO.C,R27*%
X135155902Y-86841872D03*
X136805902Y-86841872D03*
%TD*%
D38*
%TO.C,R22*%
X146438302Y-71950193D03*
X148263302Y-71950193D03*
%TD*%
D25*
%TO.C,R32*%
X127652132Y-89291158D03*
X126002132Y-89291158D03*
%TD*%
D29*
%TO.C,R12*%
X110550770Y-63411065D03*
X112200770Y-63411065D03*
%TD*%
D37*
%TO.C,C4*%
X134422012Y-92709641D03*
X134422012Y-91159641D03*
%TD*%
D44*
%TO.C,C16*%
X137779836Y-75561114D03*
X137779836Y-74601114D03*
%TD*%
D48*
%TO.C,D5*%
X161760099Y-64592399D03*
X159860099Y-64592399D03*
X160810099Y-66692399D03*
%TD*%
D21*
%TO.C,P10*%
X129822099Y-74459624D03*
X129822099Y-75759624D03*
%TD*%
D46*
%TO.C,Y2*%
X139390099Y-76137399D03*
X141590099Y-76137399D03*
X141590099Y-74437399D03*
X139390099Y-74437399D03*
%TD*%
D29*
%TO.C,R30*%
X110530100Y-93877400D03*
X112180100Y-93877400D03*
%TD*%
M02*
